<svg xmlns="http://www.w3.org/2000/svg" xmlns:xlink="http://www.w3.org/1999/xlink" version="1.1" viewBox="0 0 1640 2611" style="background: #ffffff"><defs><style>@import url(https://fonts.googleapis.com/css?family=Open+Sans:400,700);</style></defs><defs joint-selector="defs"></defs><g joint-selector="layers"  transform="matrix(1,0,0,1,0,0)"><g ></g><g ><!--z-index:0--><!--z-index:1--><!--z-index:2--><!--z-index:3--><!--z-index:4--><!--z-index:5--><!--z-index:6--><!--z-index:7--><!--z-index:8--><!--z-index:9--><!--z-index:10--><!--z-index:11--><!--z-index:12--><!--z-index:13--><!--z-index:14--><!--z-index:15--><!--z-index:16--><g   id="j_54"  transform="translate(20,2574.6)"><g id="v-748"><text  id="v-749" font-size="22px" xml:space="preserve" y="0.8em" font-weight="normal" text-anchor="start" fill="#aaaaaa" pointer-events="none" display="block" font-family="Open Sans"><tspan dy="0"  display="block">Wednesday, July 23, 2025 at 6:34 PM Ecuador Time</tspan></text></g></g><!--z-index:17--><g   id="j_53"  transform="translate(20,2548.2)"><g id="v-746"><text  id="v-747" font-size="22px" xml:space="preserve" y="0.8em" font-weight="normal" text-anchor="start" fill="#aaaaaa" pointer-events="none" display="block" font-family="Open Sans"><tspan dy="0"  display="block">Vista de los contenedores principales que componen el sistema INATrace.</tspan></text></g></g><!--z-index:18--><g   id="j_52"  transform="translate(20,2505)"><g id="v-744"><text  id="v-745" font-size="36px" xml:space="preserve" y="0.8em" font-weight="normal" text-anchor="start" fill="#000000" pointer-events="none" display="block" font-family="Open Sans"><tspan dy="0"  display="block">INATrace - Diagrama de Contenedores</tspan></text></g></g><!--z-index:19--><g   id="j_56"  transform="translate(199,152)" style=""><g id="v-763"><rect  id="v-764" width="1240" height="2211" rx="0" ry="0" fill="#ffffff" stroke="#0f5eaa" stroke-width="1" stroke-dasharray="20,20" pointer-events="none"></rect><text  id="v-765" font-size="24px" xml:space="preserve" y="2172" font-weight="normal" fill="#0f5eaa" text-anchor="start" pointer-events="visible" font-family="Open Sans" transform="matrix(1,0,0,1,15,0)"><tspan dy="0" >INATrace</tspan></text><text  id="v-766" font-size="17px" xml:space="preserve" y="2196" font-weight="normal" fill="#0f5eaa" text-anchor="start" pointer-events="visible" font-family="Open Sans" transform="matrix(1,0,0,1,15,0)"><tspan dy="0" >[Software System]</tspan></text><image  id="v-767" pointer-events="visible"></image></g></g><!--z-index:20--><g   id="j_55"  transform="translate(969,172)" style=""><g  id="v-756" style="opacity: 1;"><rect  id="v-757" rx="1" ry="1" stroke="#3c7fc0" stroke-width="2" pointer-events="visiblePainted" fill="#438dd5" width="450" height="300" style="fill: rgb(67, 141, 213); stroke: rgb(60, 127, 192);"></rect><text  id="v-758" font-size="34" xml:space="preserve" y="0.8em" font-weight="bold" text-anchor="middle" pointer-events="visible" font-family="Open Sans" fill="#ffffff" transform="matrix(1,0,0,1,225,88.1)" style="fill: rgb(255, 255, 255);"><tspan dy="0" >Web Frontend</tspan></text><text  id="v-759" font-size="17" xml:space="preserve" y="0.8em" text-anchor="middle" font-family="Open Sans" fill="#ffffff" transform="matrix(1,0,0,1,225,128.9)" style="fill: rgb(255, 255, 255);"><tspan dy="0" >[Container: Angular, TypeScript, Nginx]</tspan></text><text  id="v-760" font-size="24" xml:space="preserve" y="0.8em" text-anchor="middle" font-family="Open Sans" fill="#ffffff" transform="matrix(1,0,0,1,225,159.3)" style="fill: rgb(255, 255, 255);"><tspan dy="0" >Interfaz web para gesti贸n de</tspan><tspan dy="1.2em" x="0" >trazabilidad.</tspan></text><g  id="v-761" color="#ffffff" transform="matrix(1,0,0,1,222.5,268)" display="none" style="fill: rgb(255, 255, 255);"><g ></g><g ></g><g ></g><g ></g></g><image  id="v-762"></image></g></g><!--z-index:21--><g   id="j_57"  transform="translate(219,172)" style=""><g  id="v-771" style="opacity: 1;"><rect  id="v-772" rx="1" ry="1" stroke="#3c7fc0" stroke-width="2" pointer-events="visiblePainted" fill="#438dd5" width="450" height="300" style="fill: rgb(67, 141, 213); stroke: rgb(60, 127, 192);"></rect><text  id="v-773" font-size="34" xml:space="preserve" y="0.8em" font-weight="bold" text-anchor="middle" pointer-events="visible" font-family="Open Sans" fill="#ffffff" transform="matrix(1,0,0,1,225,88.1)" style="fill: rgb(255, 255, 255);"><tspan dy="0" >App M贸vil</tspan></text><text  id="v-774" font-size="17" xml:space="preserve" y="0.8em" text-anchor="middle" font-family="Open Sans" fill="#ffffff" transform="matrix(1,0,0,1,225,128.9)" style="fill: rgb(255, 255, 255);"><tspan dy="0" >[Container: React Native, Expo]</tspan></text><text  id="v-775" font-size="24" xml:space="preserve" y="0.8em" text-anchor="middle" font-family="Open Sans" fill="#ffffff" transform="matrix(1,0,0,1,225,159.3)" style="fill: rgb(255, 255, 255);"><tspan dy="0" >Captura de datos en campo con</tspan><tspan dy="1.2em" x="0" >modo offline.</tspan></text><g  id="v-776" color="#ffffff" transform="matrix(1,0,0,1,222.5,268)" display="none" style="fill: rgb(255, 255, 255);"><g ></g><g ></g><g ></g><g ></g></g><image  id="v-777"></image></g></g><!--z-index:22--><g   id="j_58"  transform="translate(594,772)" style=""><g  id="v-784" style="opacity: 1;"><rect  id="v-785" rx="1" ry="1" stroke="#3c7fc0" stroke-width="2" pointer-events="visiblePainted" fill="#438dd5" width="450" height="300" style="fill: rgb(67, 141, 213); stroke: rgb(60, 127, 192);"></rect><text  id="v-786" font-size="34" xml:space="preserve" y="0.8em" font-weight="bold" text-anchor="middle" pointer-events="visible" font-family="Open Sans" fill="#ffffff" transform="matrix(1,0,0,1,225,102.5)" style="fill: rgb(255, 255, 255);"><tspan dy="0" >API Backend</tspan></text><text  id="v-787" font-size="17" xml:space="preserve" y="0.8em" text-anchor="middle" font-family="Open Sans" fill="#ffffff" transform="matrix(1,0,0,1,225,143.3)" style="fill: rgb(255, 255, 255);"><tspan dy="0" >[Container: Java 17, Spring Boot]</tspan></text><text  id="v-788" font-size="24" xml:space="preserve" y="0.8em" text-anchor="middle" font-family="Open Sans" fill="#ffffff" transform="matrix(1,0,0,1,225,173.7)" style="fill: rgb(255, 255, 255);"><tspan dy="0" >Servicios REST y l贸gica de negocio.</tspan></text><g  id="v-789" color="#ffffff" transform="matrix(1,0,0,1,222.5,268)" display="none" style="fill: rgb(255, 255, 255);"><g ></g><g ></g><g ></g><g ></g></g><image  id="v-790"></image></g></g><!--z-index:23--><g   id="j_59"  transform="translate(219,1372)" style=""><g  id="v-797" style="opacity: 1;"><rect  id="v-798" rx="1" ry="1" stroke="#3c7fc0" stroke-width="2" pointer-events="visiblePainted" fill="#438dd5" width="450" height="300" style="fill: rgb(67, 141, 213); stroke: rgb(60, 127, 192);"></rect><text  id="v-799" font-size="34" xml:space="preserve" y="0.8em" font-weight="bold" text-anchor="middle" pointer-events="visible" font-family="Open Sans" fill="#ffffff" transform="matrix(1,0,0,1,225,88.1)" style="fill: rgb(255, 255, 255);"><tspan dy="0" >Red Blockchain</tspan></text><text  id="v-800" font-size="17" xml:space="preserve" y="0.8em" text-anchor="middle" font-family="Open Sans" fill="#ffffff" transform="matrix(1,0,0,1,225,128.9)" style="fill: rgb(255, 255, 255);"><tspan dy="0" >[Container: Hyperledger Fabric, Go]</tspan></text><text  id="v-801" font-size="24" xml:space="preserve" y="0.8em" text-anchor="middle" font-family="Open Sans" fill="#ffffff" transform="matrix(1,0,0,1,225,159.3)" style="fill: rgb(255, 255, 255);"><tspan dy="0" >Registro inmutable de</tspan><tspan dy="1.2em" x="0" >transacciones.</tspan></text><g  id="v-802" color="#ffffff" transform="matrix(1,0,0,1,222.5,268)" display="none" style="fill: rgb(255, 255, 255);"><g ></g><g ></g><g ></g><g ></g></g><image  id="v-803"></image></g></g><!--z-index:24--><g   id="j_60"  transform="translate(969,1372)" style=""><g  id="v-807" style="opacity: 1;"><rect  id="v-808" rx="1" ry="1" stroke="#3c7fc0" stroke-width="2" pointer-events="visiblePainted" fill="#438dd5" width="450" height="300" style="fill: rgb(67, 141, 213); stroke: rgb(60, 127, 192);"></rect><text  id="v-809" font-size="34" xml:space="preserve" y="0.8em" font-weight="bold" text-anchor="middle" pointer-events="visible" font-family="Open Sans" fill="#ffffff" transform="matrix(1,0,0,1,225,88.1)" style="fill: rgb(255, 255, 255);"><tspan dy="0" >Base de Datos</tspan></text><text  id="v-810" font-size="17" xml:space="preserve" y="0.8em" text-anchor="middle" font-family="Open Sans" fill="#ffffff" transform="matrix(1,0,0,1,225,128.9)" style="fill: rgb(255, 255, 255);"><tspan dy="0" >[Container: MySQL 8.0]</tspan></text><text  id="v-811" font-size="24" xml:space="preserve" y="0.8em" text-anchor="middle" font-family="Open Sans" fill="#ffffff" transform="matrix(1,0,0,1,225,159.3)" style="fill: rgb(255, 255, 255);"><tspan dy="0" >Informaci贸n transaccional y</tspan><tspan dy="1.2em" x="0" >usuarios.</tspan></text><g  id="v-812" color="#ffffff" transform="matrix(1,0,0,1,222.5,268)" display="none" style="fill: rgb(255, 255, 255);"><g ></g><g ></g><g ></g><g ></g></g><image  id="v-813"></image></g></g><!--z-index:25--><g   id="j_61"  transform="translate(219,1972)" style=""><g  id="v-817" style="opacity: 1;"><rect  id="v-818" rx="1" ry="1" stroke="#3c7fc0" stroke-width="2" pointer-events="visiblePainted" fill="#438dd5" width="450" height="300" style="fill: rgb(67, 141, 213); stroke: rgb(60, 127, 192);"></rect><text  id="v-819" font-size="34" xml:space="preserve" y="0.8em" font-weight="bold" text-anchor="middle" pointer-events="visible" font-family="Open Sans" fill="#ffffff" transform="matrix(1,0,0,1,225,102.5)" style="fill: rgb(255, 255, 255);"><tspan dy="0" >DB Blockchain</tspan></text><text  id="v-820" font-size="17" xml:space="preserve" y="0.8em" text-anchor="middle" font-family="Open Sans" fill="#ffffff" transform="matrix(1,0,0,1,225,143.3)" style="fill: rgb(255, 255, 255);"><tspan dy="0" >[Container: CouchDB]</tspan></text><text  id="v-821" font-size="24" xml:space="preserve" y="0.8em" text-anchor="middle" font-family="Open Sans" fill="#ffffff" transform="matrix(1,0,0,1,225,173.7)" style="fill: rgb(255, 255, 255);"><tspan dy="0" >Estado del ledger para consultas.</tspan></text><g  id="v-822" color="#ffffff" transform="matrix(1,0,0,1,222.5,268)" display="none" style="fill: rgb(255, 255, 255);"><g ></g><g ></g><g ></g><g ></g></g><image  id="v-823"></image></g></g><!--z-index:26--><g   id="j_62" ><path  stroke="#707070" d="M 1100 472 L 913 772" id="v-839" stroke-width="2" stroke-dasharray="30 30" fill="none" style="opacity: 1;"></path><path  fill="black" stroke="black" d="M 0 0 0 0" transform="matrix(-0.5299989865422611,0.8479982749181604,-0.8479982749181604,-0.5299989865422611,1100.25,472)"></path><path  fill="#707070" stroke="#707070" d="M 20 0 L 0 10 L 20 20 z" id="v-841" transform="matrix(0.5299987607066414,-0.847998416065398,0.847998416065398,0.5299987607066414,904.2700160252483,766.7000160848376)" style="opacity: 1;"></path><path  d="M 1100 472 L 913 772" id="v-840" fill="none" style="cursor: auto; pointer-events: visiblepainted;"></path><g ><g id="v-830"  label-idx="0" cursor="move" transform="matrix(1,0,0,1,1006.5,622)" style="cursor: default; opacity: 1;"><rect joint-selector="rect" id="v-834" fill="#ffffff" rx="3" ry="3" pointer-events="none" width="184.94581604003906" height="60.448482513427734" transform="matrix(1,0,0,1,-92.5,-30.2)"></rect><text joint-selector="text" id="v-833" font-size="24px" xml:space="preserve" y="0.8em" fill="#707070" text-anchor="middle" pointer-events="none" font-family="Open Sans" font-weight="normal" transform="matrix(1,0,0,1,0,-24.8)"><tspan dy="0" >Realiza llamadas</tspan><tspan dy="1.2em" x="0" >API</tspan></text></g><g id="v-831"  label-idx="1" cursor="move" transform="matrix(1,0,0,1,1006.5,662.7999877929688)" style="cursor: default; opacity: 1;"><rect joint-selector="rect" id="v-836" fill="#ffffff" rx="3" ry="3" pointer-events="none" width="108.02242279052734" height="21.098986625671387" transform="matrix(1,0,0,1,-54,-10.6)"></rect><text joint-selector="text" id="v-835" font-size="17px" xml:space="preserve" y="0.8em" fill="#707070" text-anchor="middle" pointer-events="none" font-family="Open Sans" font-weight="normal" transform="matrix(1,0,0,1,0,-6.6)"><tspan dy="0" >[HTTPS/JSON]</tspan></text></g><g id="v-832"  label-idx="2" cursor="move" transform="matrix(1,0,0,1,996.5,671.2000122070312)" style="cursor: default; opacity: 1;"><rect joint-selector="rect" id="v-838" fill="#ffffff" rx="3" ry="3"  width="0" height="0" transform="matrix(1,0,0,1,0,0)" display="none"></rect><text joint-selector="text" id="v-837" fill="#000000" font-size="14" text-anchor="middle" pointer-events="none"></text></g></g><g  display="none" style="display: none;"></g><g  id="v-843" display="none"><g  id="v-828"><path  end="source" d="M 26 0 L 0 13 L 26 26 z"></path></g><g  id="v-829"><path  end="target" d="M 26 0 L 0 13 L 26 26 z"></path></g></g><g  id="v-842" display="none"><g  id="v-827" transform="translate(1078.8407411961143, 505.94533497949584) "><g  event="remove"><circle r="11"></circle><path transform="scale(.8) translate(-16, -16)" d="M24.778,21.419 19.276,15.917 24.777,10.415 21.949,7.585 16.447,13.087 10.945,7.585 8.117,10.415 13.618,15.917 8.116,21.419 10.946,24.248 16.447,18.746 21.948,24.248z"></path><title>Remove link.</title></g><g  event="link:options"><circle r="11" transform="translate(25)"></circle><path fill="white" transform="scale(.55) translate(29, -16)" d="M31.229,17.736c0.064-0.571,0.104-1.148,0.104-1.736s-0.04-1.166-0.104-1.737l-4.377-1.557c-0.218-0.716-0.504-1.401-0.851-2.05l1.993-4.192c-0.725-0.91-1.549-1.734-2.458-2.459l-4.193,1.994c-0.647-0.347-1.334-0.632-2.049-0.849l-1.558-4.378C17.165,0.708,16.588,0.667,16,0.667s-1.166,0.041-1.737,0.105L12.707,5.15c-0.716,0.217-1.401,0.502-2.05,0.849L6.464,4.005C5.554,4.73,4.73,5.554,4.005,6.464l1.994,4.192c-0.347,0.648-0.632,1.334-0.849,2.05l-4.378,1.557C0.708,14.834,0.667,15.412,0.667,16s0.041,1.165,0.105,1.736l4.378,1.558c0.217,0.715,0.502,1.401,0.849,2.049l-1.994,4.193c0.725,0.909,1.549,1.733,2.459,2.458l4.192-1.993c0.648,0.347,1.334,0.633,2.05,0.851l1.557,4.377c0.571,0.064,1.148,0.104,1.737,0.104c0.588,0,1.165-0.04,1.736-0.104l1.558-4.377c0.715-0.218,1.399-0.504,2.049-0.851l4.193,1.993c0.909-0.725,1.733-1.549,2.458-2.458l-1.993-4.193c0.347-0.647,0.633-1.334,0.851-2.049L31.229,17.736zM16,20.871c-2.69,0-4.872-2.182-4.872-4.871c0-2.69,2.182-4.872,4.872-4.872c2.689,0,4.871,2.182,4.871,4.872C20.871,18.689,18.689,20.871,16,20.871z"></path><title>Link options.</title></g></g></g></g><!--z-index:27--><g   id="j_63" ><path  stroke="#707070" d="M 538 472 L 725 772" id="v-859" stroke-width="2" stroke-dasharray="30 30" fill="none" style="opacity: 1;"></path><path  fill="black" stroke="black" d="M 0 0 0 0" transform="matrix(0.5299989300833599,0.8479983102049753,-0.8479983102049753,0.5299989300833599,537.75,472)"></path><path  fill="#707070" stroke="#707070" d="M 20 0 L 0 10 L 20 20 z" id="v-861" transform="matrix(-0.5299989865422613,-0.8479982749181602,0.8479982749181602,-0.5299989865422613,716.7700193232722,777.2999921458543)" style="opacity: 1;"></path><path  d="M 538 472 L 725 772" id="v-860" fill="none" style="cursor: auto; pointer-events: visiblepainted;"></path><g ><g id="v-850"  label-idx="0" cursor="move" transform="matrix(1,0,0,1,631.5,622)" style="cursor: default; opacity: 1;"><rect joint-selector="rect" id="v-854" fill="#ffffff" rx="3" ry="3" pointer-events="none" width="183.62713623046875" height="31.648484230041504" transform="matrix(1,0,0,1,-91.8,-15.8)"></rect><text joint-selector="text" id="v-853" font-size="24px" xml:space="preserve" y="0.8em" fill="#707070" text-anchor="middle" pointer-events="none" font-family="Open Sans" font-weight="normal" transform="matrix(1,0,0,1,0,-10.4)"><tspan dy="0" >Sincroniza datos</tspan></text></g><g id="v-851"  label-idx="1" cursor="move" transform="matrix(1,0,0,1,631.5,648.4000244140625)" style="cursor: default; opacity: 1;"><rect joint-selector="rect" id="v-856" fill="#ffffff" rx="3" ry="3" pointer-events="none" width="108.02242279052734" height="21.098986625671387" transform="matrix(1,0,0,1,-54,-10.6)"></rect><text joint-selector="text" id="v-855" font-size="17px" xml:space="preserve" y="0.8em" fill="#707070" text-anchor="middle" pointer-events="none" font-family="Open Sans" font-weight="normal" transform="matrix(1,0,0,1,0,-6.6)"><tspan dy="0" >[HTTPS/JSON]</tspan></text></g><g id="v-852"  label-idx="2" cursor="move" transform="matrix(1,0,0,1,621.5,656.7999877929688)" style="cursor: default; opacity: 1;"><rect joint-selector="rect" id="v-858" fill="#ffffff" rx="3" ry="3"  width="0" height="0" transform="matrix(1,0,0,1,0,0)" display="none"></rect><text joint-selector="text" id="v-857" fill="#000000" font-size="14" text-anchor="middle" pointer-events="none"></text></g></g><g  display="none" style="display: none;"></g><g  id="v-863" display="none"><g  id="v-848"><path  end="source" d="M 26 0 L 0 13 L 26 26 z"></path></g><g  id="v-849"><path  end="target" d="M 26 0 L 0 13 L 26 26 z"></path></g></g><g  id="v-862" display="none"><g  id="v-847" transform="translate(559.1592588038858, 505.94533497949584) "><g  event="remove"><circle r="11"></circle><path transform="scale(.8) translate(-16, -16)" d="M24.778,21.419 19.276,15.917 24.777,10.415 21.949,7.585 16.447,13.087 10.945,7.585 8.117,10.415 13.618,15.917 8.116,21.419 10.946,24.248 16.447,18.746 21.948,24.248z"></path><title>Remove link.</title></g><g  event="link:options"><circle r="11" transform="translate(25)"></circle><path fill="white" transform="scale(.55) translate(29, -16)" d="M31.229,17.736c0.064-0.571,0.104-1.148,0.104-1.736s-0.04-1.166-0.104-1.737l-4.377-1.557c-0.218-0.716-0.504-1.401-0.851-2.05l1.993-4.192c-0.725-0.91-1.549-1.734-2.458-2.459l-4.193,1.994c-0.647-0.347-1.334-0.632-2.049-0.849l-1.558-4.378C17.165,0.708,16.588,0.667,16,0.667s-1.166,0.041-1.737,0.105L12.707,5.15c-0.716,0.217-1.401,0.502-2.05,0.849L6.464,4.005C5.554,4.73,4.73,5.554,4.005,6.464l1.994,4.192c-0.347,0.648-0.632,1.334-0.849,2.05l-4.378,1.557C0.708,14.834,0.667,15.412,0.667,16s0.041,1.165,0.105,1.736l4.378,1.558c0.217,0.715,0.502,1.401,0.849,2.049l-1.994,4.193c0.725,0.909,1.549,1.733,2.459,2.458l4.192-1.993c0.648,0.347,1.334,0.633,2.05,0.851l1.557,4.377c0.571,0.064,1.148,0.104,1.737,0.104c0.588,0,1.165-0.04,1.736-0.104l1.558-4.377c0.715-0.218,1.399-0.504,2.049-0.851l4.193,1.993c0.909-0.725,1.733-1.549,2.458-2.458l-1.993-4.193c0.347-0.647,0.633-1.334,0.851-2.049L31.229,17.736zM16,20.871c-2.69,0-4.872-2.182-4.872-4.871c0-2.69,2.182-4.872,4.872-4.872c2.689,0,4.871,2.182,4.871,4.872C20.871,18.689,18.689,20.871,16,20.871z"></path><title>Link options.</title></g></g></g></g><!--z-index:28--><g   id="j_64" ><path  stroke="#707070" d="M 913 1072 L 1100 1372" id="v-879" stroke-width="2" stroke-dasharray="30 30" fill="none" style="opacity: 1;"></path><path  fill="black" stroke="black" d="M 0 0 0 0" transform="matrix(0.5299989300833599,0.8479983102049753,-0.8479983102049753,0.5299989300833599,912.75,1072)"></path><path  fill="#707070" stroke="#707070" d="M 20 0 L 0 10 L 20 20 z" id="v-881" transform="matrix(-0.5299989865422613,-0.8479982749181602,0.8479982749181602,-0.5299989865422613,1091.769958288116,1377.2999921458543)" style="opacity: 1;"></path><path  d="M 913 1072 L 1100 1372" id="v-880" fill="none" style="cursor: auto; pointer-events: visiblepainted;"></path><g ><g id="v-870"  label-idx="0" cursor="move" transform="matrix(1,0,0,1,1006.5,1222)" style="cursor: default; opacity: 1;"><rect joint-selector="rect" id="v-874" fill="#ffffff" rx="3" ry="3" pointer-events="none" width="144.3412628173828" height="60.448482513427734" transform="matrix(1,0,0,1,-72.2,-30.2)"></rect><text joint-selector="text" id="v-873" font-size="24px" xml:space="preserve" y="0.8em" fill="#707070" text-anchor="middle" pointer-events="none" font-family="Open Sans" font-weight="normal" transform="matrix(1,0,0,1,0,-24.8)"><tspan dy="0" >Lee y escribe</tspan><tspan dy="1.2em" x="0" >datos</tspan></text></g><g id="v-871"  label-idx="1" cursor="move" transform="matrix(1,0,0,1,1006.5,1262.800048828125)" style="cursor: default; opacity: 1;"><rect joint-selector="rect" id="v-876" fill="#ffffff" rx="3" ry="3" pointer-events="none" width="87.30805206298828" height="21.098986625671387" transform="matrix(1,0,0,1,-43.7,-10.6)"></rect><text joint-selector="text" id="v-875" font-size="17px" xml:space="preserve" y="0.8em" fill="#707070" text-anchor="middle" pointer-events="none" font-family="Open Sans" font-weight="normal" transform="matrix(1,0,0,1,0,-6.6)"><tspan dy="0" >[JDBC/SQL]</tspan></text></g><g id="v-872"  label-idx="2" cursor="move" transform="matrix(1,0,0,1,996.5,1271.199951171875)" style="cursor: default; opacity: 1;"><rect joint-selector="rect" id="v-878" fill="#ffffff" rx="3" ry="3"  width="0" height="0" transform="matrix(1,0,0,1,0,0)" display="none"></rect><text joint-selector="text" id="v-877" fill="#000000" font-size="14" text-anchor="middle" pointer-events="none"></text></g></g><g  display="none" style="display: none;"></g><g  id="v-883" display="none"><g  id="v-868"><path  end="source" d="M 26 0 L 0 13 L 26 26 z"></path></g><g  id="v-869"><path  end="target" d="M 26 0 L 0 13 L 26 26 z"></path></g></g><g  id="v-882" display="none"><g  id="v-867" transform="translate(934.1592588038858, 1105.9453349794958) "><g  event="remove"><circle r="11"></circle><path transform="scale(.8) translate(-16, -16)" d="M24.778,21.419 19.276,15.917 24.777,10.415 21.949,7.585 16.447,13.087 10.945,7.585 8.117,10.415 13.618,15.917 8.116,21.419 10.946,24.248 16.447,18.746 21.948,24.248z"></path><title>Remove link.</title></g><g  event="link:options"><circle r="11" transform="translate(25)"></circle><path fill="white" transform="scale(.55) translate(29, -16)" d="M31.229,17.736c0.064-0.571,0.104-1.148,0.104-1.736s-0.04-1.166-0.104-1.737l-4.377-1.557c-0.218-0.716-0.504-1.401-0.851-2.05l1.993-4.192c-0.725-0.91-1.549-1.734-2.458-2.459l-4.193,1.994c-0.647-0.347-1.334-0.632-2.049-0.849l-1.558-4.378C17.165,0.708,16.588,0.667,16,0.667s-1.166,0.041-1.737,0.105L12.707,5.15c-0.716,0.217-1.401,0.502-2.05,0.849L6.464,4.005C5.554,4.73,4.73,5.554,4.005,6.464l1.994,4.192c-0.347,0.648-0.632,1.334-0.849,2.05l-4.378,1.557C0.708,14.834,0.667,15.412,0.667,16s0.041,1.165,0.105,1.736l4.378,1.558c0.217,0.715,0.502,1.401,0.849,2.049l-1.994,4.193c0.725,0.909,1.549,1.733,2.459,2.458l4.192-1.993c0.648,0.347,1.334,0.633,2.05,0.851l1.557,4.377c0.571,0.064,1.148,0.104,1.737,0.104c0.588,0,1.165-0.04,1.736-0.104l1.558-4.377c0.715-0.218,1.399-0.504,2.049-0.851l4.193,1.993c0.909-0.725,1.733-1.549,2.458-2.458l-1.993-4.193c0.347-0.647,0.633-1.334,0.851-2.049L31.229,17.736zM16,20.871c-2.69,0-4.872-2.182-4.872-4.871c0-2.69,2.182-4.872,4.872-4.872c2.689,0,4.871,2.182,4.871,4.872C20.871,18.689,18.689,20.871,16,20.871z"></path><title>Link options.</title></g></g></g></g><!--z-index:29--><g   id="j_65" ><path  stroke="#707070" d="M 725 1072 L 538 1372" id="v-899" stroke-width="2" stroke-dasharray="30 30" fill="none" style="opacity: 1;"></path><path  fill="black" stroke="black" d="M 0 0 0 0" transform="matrix(-0.5299989865422611,0.8479982749181604,-0.8479982749181604,-0.5299989865422611,725.25,1072)"></path><path  fill="#707070" stroke="#707070" d="M 20 0 L 0 10 L 20 20 z" id="v-901" transform="matrix(0.5299987607066414,-0.847998416065398,0.847998416065398,0.5299987607066414,529.2700160252483,1366.7000160848374)" style="opacity: 1;"></path><path  d="M 725 1072 L 538 1372" id="v-900" fill="none" style="cursor: auto; pointer-events: visiblepainted;"></path><g ><g id="v-890"  label-idx="0" cursor="move" transform="matrix(1,0,0,1,631.5,1222)" style="cursor: default; opacity: 1;"><rect joint-selector="rect" id="v-894" fill="#ffffff" rx="3" ry="3" pointer-events="none" width="154.23141479492188" height="60.448482513427734" transform="matrix(1,0,0,1,-77.1,-30.2)"></rect><text joint-selector="text" id="v-893" font-size="24px" xml:space="preserve" y="0.8em" fill="#707070" text-anchor="middle" pointer-events="none" font-family="Open Sans" font-weight="normal" transform="matrix(1,0,0,1,0,-24.8)"><tspan dy="0" >Registra</tspan><tspan dy="1.2em" x="0" >transacciones</tspan></text></g><g id="v-891"  label-idx="1" cursor="move" transform="matrix(1,0,0,1,631.5,1262.800048828125)" style="cursor: default; opacity: 1;"><rect joint-selector="rect" id="v-896" fill="#ffffff" rx="3" ry="3" pointer-events="none" width="95.54984283447266" height="21.098986625671387" transform="matrix(1,0,0,1,-47.8,-10.6)"></rect><text joint-selector="text" id="v-895" font-size="17px" xml:space="preserve" y="0.8em" fill="#707070" text-anchor="middle" pointer-events="none" font-family="Open Sans" font-weight="normal" transform="matrix(1,0,0,1,0,-6.6)"><tspan dy="0" >[Fabric SDK]</tspan></text></g><g id="v-892"  label-idx="2" cursor="move" transform="matrix(1,0,0,1,621.5,1271.199951171875)" style="cursor: default; opacity: 1;"><rect joint-selector="rect" id="v-898" fill="#ffffff" rx="3" ry="3"  width="0" height="0" transform="matrix(1,0,0,1,0,0)" display="none"></rect><text joint-selector="text" id="v-897" fill="#000000" font-size="14" text-anchor="middle" pointer-events="none"></text></g></g><g  display="none" style="display: none;"></g><g  id="v-903" display="none"><g  id="v-888"><path  end="source" d="M 26 0 L 0 13 L 26 26 z"></path></g><g  id="v-889"><path  end="target" d="M 26 0 L 0 13 L 26 26 z"></path></g></g><g  id="v-902" display="none"><g  id="v-887" transform="translate(703.8407411961143, 1105.9453349794958) "><g  event="remove"><circle r="11"></circle><path transform="scale(.8) translate(-16, -16)" d="M24.778,21.419 19.276,15.917 24.777,10.415 21.949,7.585 16.447,13.087 10.945,7.585 8.117,10.415 13.618,15.917 8.116,21.419 10.946,24.248 16.447,18.746 21.948,24.248z"></path><title>Remove link.</title></g><g  event="link:options"><circle r="11" transform="translate(25)"></circle><path fill="white" transform="scale(.55) translate(29, -16)" d="M31.229,17.736c0.064-0.571,0.104-1.148,0.104-1.736s-0.04-1.166-0.104-1.737l-4.377-1.557c-0.218-0.716-0.504-1.401-0.851-2.05l1.993-4.192c-0.725-0.91-1.549-1.734-2.458-2.459l-4.193,1.994c-0.647-0.347-1.334-0.632-2.049-0.849l-1.558-4.378C17.165,0.708,16.588,0.667,16,0.667s-1.166,0.041-1.737,0.105L12.707,5.15c-0.716,0.217-1.401,0.502-2.05,0.849L6.464,4.005C5.554,4.73,4.73,5.554,4.005,6.464l1.994,4.192c-0.347,0.648-0.632,1.334-0.849,2.05l-4.378,1.557C0.708,14.834,0.667,15.412,0.667,16s0.041,1.165,0.105,1.736l4.378,1.558c0.217,0.715,0.502,1.401,0.849,2.049l-1.994,4.193c0.725,0.909,1.549,1.733,2.459,2.458l4.192-1.993c0.648,0.347,1.334,0.633,2.05,0.851l1.557,4.377c0.571,0.064,1.148,0.104,1.737,0.104c0.588,0,1.165-0.04,1.736-0.104l1.558-4.377c0.715-0.218,1.399-0.504,2.049-0.851l4.193,1.993c0.909-0.725,1.733-1.549,2.458-2.458l-1.993-4.193c0.347-0.647,0.633-1.334,0.851-2.049L31.229,17.736zM16,20.871c-2.69,0-4.872-2.182-4.872-4.871c0-2.69,2.182-4.872,4.872-4.872c2.689,0,4.871,2.182,4.871,4.872C20.871,18.689,18.689,20.871,16,20.871z"></path><title>Link options.</title></g></g></g></g><!--z-index:30--><g   id="j_66" ><path  stroke="#707070" d="M 444 1672 L 444 1972" id="v-919" stroke-width="2" stroke-dasharray="30 30" fill="none" style="opacity: 1;"></path><path  fill="black" stroke="black" d="M 0 0 0 0" transform="matrix(6.123233995736765e-17,0.9999999999999999,-0.9999999999999999,6.123233995736765e-17,444,1672)"></path><path  fill="#707070" stroke="#707070" d="M 20 0 L 0 10 L 20 20 z" id="v-921" transform="matrix(-1.8369701987210294e-16,-0.9999999999999999,0.9999999999999999,-1.8369701987210294e-16,433.99999999999994,1972)" style="opacity: 1;"></path><path  d="M 444 1672 L 444 1972" id="v-920" fill="none" style="cursor: auto; pointer-events: visiblepainted;"></path><g ><g id="v-910"  label-idx="0" cursor="move" transform="matrix(1,0,0,1,444,1822)" style="cursor: default; opacity: 1;"><rect joint-selector="rect" id="v-914" fill="#ffffff" rx="3" ry="3" pointer-events="none" width="191.86892700195312" height="31.648484230041504" transform="matrix(1,0,0,1,-95.9,-15.8)"></rect><text joint-selector="text" id="v-913" font-size="24px" xml:space="preserve" y="0.8em" fill="#707070" text-anchor="middle" pointer-events="none" font-family="Open Sans" font-weight="normal" transform="matrix(1,0,0,1,0,-10.4)"><tspan dy="0" >Almacena estado</tspan></text></g><g id="v-911"  label-idx="1" cursor="move" transform="matrix(1,0,0,1,444,1848.4000244140625)" style="cursor: default; opacity: 1;"><rect joint-selector="rect" id="v-916" fill="#ffffff" rx="3" ry="3" pointer-events="none" width="114.4510269165039" height="21.098986625671387" transform="matrix(1,0,0,1,-57.2,-10.6)"></rect><text joint-selector="text" id="v-915" font-size="17px" xml:space="preserve" y="0.8em" fill="#707070" text-anchor="middle" pointer-events="none" font-family="Open Sans" font-weight="normal" transform="matrix(1,0,0,1,0,-6.6)"><tspan dy="0" >[CouchDB API]</tspan></text></g><g id="v-912"  label-idx="2" cursor="move" transform="matrix(1,0,0,1,434,1856.800048828125)" style="cursor: default; opacity: 1;"><rect joint-selector="rect" id="v-918" fill="#ffffff" rx="3" ry="3"  width="0" height="0" transform="matrix(1,0,0,1,0,0)" display="none"></rect><text joint-selector="text" id="v-917" fill="#000000" font-size="14" text-anchor="middle" pointer-events="none"></text></g></g><g  display="none" style="display: none;"></g><g  id="v-923" display="none"><g  id="v-908"><path  end="source" d="M 26 0 L 0 13 L 26 26 z"></path></g><g  id="v-909"><path  end="target" d="M 26 0 L 0 13 L 26 26 z"></path></g></g><g  id="v-922" display="none"><g  id="v-907" transform="translate(444, 1712) "><g  event="remove"><circle r="11"></circle><path transform="scale(.8) translate(-16, -16)" d="M24.778,21.419 19.276,15.917 24.777,10.415 21.949,7.585 16.447,13.087 10.945,7.585 8.117,10.415 13.618,15.917 8.116,21.419 10.946,24.248 16.447,18.746 21.948,24.248z"></path><title>Remove link.</title></g><g  event="link:options"><circle r="11" transform="translate(25)"></circle><path fill="white" transform="scale(.55) translate(29, -16)" d="M31.229,17.736c0.064-0.571,0.104-1.148,0.104-1.736s-0.04-1.166-0.104-1.737l-4.377-1.557c-0.218-0.716-0.504-1.401-0.851-2.05l1.993-4.192c-0.725-0.91-1.549-1.734-2.458-2.459l-4.193,1.994c-0.647-0.347-1.334-0.632-2.049-0.849l-1.558-4.378C17.165,0.708,16.588,0.667,16,0.667s-1.166,0.041-1.737,0.105L12.707,5.15c-0.716,0.217-1.401,0.502-2.05,0.849L6.464,4.005C5.554,4.73,4.73,5.554,4.005,6.464l1.994,4.192c-0.347,0.648-0.632,1.334-0.849,2.05l-4.378,1.557C0.708,14.834,0.667,15.412,0.667,16s0.041,1.165,0.105,1.736l4.378,1.558c0.217,0.715,0.502,1.401,0.849,2.049l-1.994,4.193c0.725,0.909,1.549,1.733,2.459,2.458l4.192-1.993c0.648,0.347,1.334,0.633,2.05,0.851l1.557,4.377c0.571,0.064,1.148,0.104,1.737,0.104c0.588,0,1.165-0.04,1.736-0.104l1.558-4.377c0.715-0.218,1.399-0.504,2.049-0.851l4.193,1.993c0.909-0.725,1.733-1.549,2.458-2.458l-1.993-4.193c0.347-0.647,0.633-1.334,0.851-2.049L31.229,17.736zM16,20.871c-2.69,0-4.872-2.182-4.872-4.871c0-2.69,2.182-4.872,4.872-4.872c2.689,0,4.871,2.182,4.871,4.872C20.871,18.689,18.689,20.871,16,20.871z"></path><title>Link options.</title></g></g></g></g><!--z-index:31--><!--z-index:32--><!--z-index:33--><!--z-index:34--><!--z-index:35--><!--z-index:36--><!--z-index:37--><!--z-index:38--><!--z-index:39--><!--z-index:40--><!--z-index:41--><!--z-index:42--><!--z-index:43--><!--z-index:44--><!--z-index:45--><!--z-index:46--><!--z-index:47--><!--z-index:48--><!--z-index:49--><!--z-index:50--><!--z-index:51--><!--z-index:52--><!--z-index:53--><!--z-index:54--><!--z-index:55--><!--z-index:56--><!--z-index:57--><!--z-index:58--><!--z-index:59--><!--z-index:60--><!--z-index:61--><!--z-index:62--><!--z-index:63--><!--z-index:64--><!--z-index:65--><!--z-index:66--><!--z-index:67--><!--z-index:68--><!--z-index:69--><!--z-index:70--><!--z-index:71--></g><g ></g><g ></g><g ></g></g></svg>