<svg xmlns="http://www.w3.org/2000/svg" xmlns:xlink="http://www.w3.org/1999/xlink" version="1.1" viewBox="0 0 7600 2000" style="background: #ffffff"><defs><style>@import url(https://fonts.googleapis.com/css?family=Open+Sans:400,700);</style></defs><defs joint-selector="defs"></defs><g joint-selector="layers"  transform="matrix(1,0,0,1,0,0)"><g ></g><g ><!--z-index:0--><!--z-index:1--><!--z-index:2--><!--z-index:3--><!--z-index:4--><!--z-index:5--><!--z-index:6--><!--z-index:7--><!--z-index:8--><!--z-index:9--><!--z-index:10--><!--z-index:11--><!--z-index:12--><!--z-index:13--><!--z-index:14--><!--z-index:15--><!--z-index:16--><!--z-index:17--><!--z-index:18--><!--z-index:19--><!--z-index:20--><!--z-index:21--><!--z-index:22--><!--z-index:23--><!--z-index:24--><!--z-index:25--><!--z-index:26--><!--z-index:27--><!--z-index:28--><!--z-index:29--><!--z-index:30--><!--z-index:31--><!--z-index:32--><!--z-index:33--><!--z-index:34--><!--z-index:35--><g   id="j_69"  transform="translate(20,1963.6)"><g id="v-928"><text  id="v-929" font-size="22px" xml:space="preserve" y="0.8em" font-weight="normal" text-anchor="start" fill="#aaaaaa" pointer-events="none" display="block" font-family="Open Sans"><tspan dy="0"  display="block">Wednesday, July 23, 2025 at 6:34 PM Ecuador Time</tspan></text></g></g><!--z-index:36--><g   id="j_68"  transform="translate(20,1937.1999999999998)"><g id="v-926"><text  id="v-927" font-size="22px" xml:space="preserve" y="0.8em" font-weight="normal" text-anchor="start" fill="#aaaaaa" pointer-events="none" display="block" font-family="Open Sans"><tspan dy="0"  display="block">Vista general del sistema INATrace mostrando usuarios, sistemas externos y las principales interacciones.</tspan></text></g></g><!--z-index:37--><g   id="j_67"  transform="translate(20,1893.9999999999998)"><g id="v-924"><text  id="v-925" font-size="36px" xml:space="preserve" y="0.8em" font-weight="normal" text-anchor="start" fill="#000000" pointer-events="none" display="block" font-family="Open Sans"><tspan dy="0"  display="block">INATrace - Diagrama de Contexto del Sistema</tspan></text></g></g><!--z-index:38--><g   id="j_70"  transform="translate(1849,151)" style=""><g  id="v-936" style="opacity: 1;"><rect  x="0" y="160" width="400" height="240" rx="70" id="v-938" stroke="#81a981" stroke-width="2" pointer-events="visiblePainted" fill="#8fbc8f" style="fill: rgb(143, 188, 143); stroke: rgb(129, 169, 129);"></rect><circle  cx="200" cy="88.88888888888889" r="88.88888888888889" id="v-937" stroke="#81a981" stroke-width="2" pointer-events="visiblePainted" fill="#8fbc8f" style="fill: rgb(143, 188, 143); stroke: rgb(129, 169, 129);"></circle><line  x1="80" y1="266.6666666666667" x2="80" y2="400" id="v-944" stroke="#81a981" stroke-width="2" style="stroke: rgb(129, 169, 129);"></line><line  x1="320" y1="266.6666666666667" x2="320" y2="400" id="v-945" stroke="#81a981" stroke-width="2" style="stroke: rgb(129, 169, 129);"></line><text  id="v-939" font-size="32" xml:space="preserve" y="0.8em" font-weight="bold" text-anchor="middle" pointer-events="visible" font-family="Open Sans" fill="#ffffff" transform="matrix(1,0,0,1,200,222.9)" style="fill: rgb(255, 255, 255);"><tspan dy="0" >Productor Agrícola</tspan></text><text  id="v-940" font-size="15" xml:space="preserve" y="0.8em" text-anchor="middle" font-family="Open Sans" fill="#ffffff" transform="matrix(1,0,0,1,200,261.3)" style="fill: rgb(255, 255, 255);"><tspan dy="0" >[Person]</tspan></text><text  id="v-941" font-size="22" xml:space="preserve" y="0.8em" text-anchor="middle" font-family="Open Sans" fill="#ffffff" transform="matrix(1,0,0,1,200,289.3)" style="fill: rgb(255, 255, 255);"><tspan dy="0" >Agricultor que registra cultivos y</tspan><tspan dy="1.2em" x="0" >cosechas con datos GPS.</tspan></text><g  id="v-942" font-weight="normal" text-anchor="middle" color="#ffffff" transform="matrix(1,0,0,1,197.5,368)" display="none" style="fill: rgb(255, 255, 255);"><g ></g><g ></g><g ></g><g ></g></g><image  id="v-943"></image></g></g><!--z-index:39--><g   id="j_71"  transform="translate(2549,151)" style=""><g  id="v-952" style="opacity: 1;"><rect  x="0" y="160" width="400" height="240" rx="70" id="v-954" stroke="#3f75a2" stroke-width="2" pointer-events="visiblePainted" fill="#4682b4" style="fill: rgb(70, 130, 180); stroke: rgb(63, 117, 162);"></rect><circle  cx="200" cy="88.88888888888889" r="88.88888888888889" id="v-953" stroke="#3f75a2" stroke-width="2" pointer-events="visiblePainted" fill="#4682b4" style="fill: rgb(70, 130, 180); stroke: rgb(63, 117, 162);"></circle><line  x1="80" y1="266.6666666666667" x2="80" y2="400" id="v-960" stroke="#3f75a2" stroke-width="2" style="stroke: rgb(63, 117, 162);"></line><line  x1="320" y1="266.6666666666667" x2="320" y2="400" id="v-961" stroke="#3f75a2" stroke-width="2" style="stroke: rgb(63, 117, 162);"></line><text  id="v-955" font-size="32" xml:space="preserve" y="0.8em" font-weight="bold" text-anchor="middle" pointer-events="visible" font-family="Open Sans" fill="#ffffff" transform="matrix(1,0,0,1,200,203.7)" style="fill: rgb(255, 255, 255);"><tspan dy="0" >Procesador/</tspan><tspan dy="1.2em" x="0" >Beneficiador</tspan></text><text  id="v-956" font-size="15" xml:space="preserve" y="0.8em" text-anchor="middle" font-family="Open Sans" fill="#ffffff" transform="matrix(1,0,0,1,200,280.5)" style="fill: rgb(255, 255, 255);"><tspan dy="0" >[Person]</tspan></text><text  id="v-957" font-size="22" xml:space="preserve" y="0.8em" text-anchor="middle" font-family="Open Sans" fill="#ffffff" transform="matrix(1,0,0,1,200,308.5)" style="fill: rgb(255, 255, 255);"><tspan dy="0" >Empresa que transforma café</tspan><tspan dy="1.2em" x="0" >crudo y registra calidad.</tspan></text><g  id="v-958" font-weight="normal" text-anchor="middle" color="#ffffff" transform="matrix(1,0,0,1,197.5,368)" display="none" style="fill: rgb(255, 255, 255);"><g ></g><g ></g><g ></g><g ></g></g><image  id="v-959"></image></g></g><!--z-index:40--><g   id="j_72"  transform="translate(3249,151)" style=""><g  id="v-968" style="opacity: 1;"><rect  x="0" y="160" width="400" height="240" rx="70" id="v-970" stroke="#c4951d" stroke-width="2" pointer-events="visiblePainted" fill="#daa520" style="fill: rgb(218, 165, 32); stroke: rgb(196, 149, 29);"></rect><circle  cx="200" cy="88.88888888888889" r="88.88888888888889" id="v-969" stroke="#c4951d" stroke-width="2" pointer-events="visiblePainted" fill="#daa520" style="fill: rgb(218, 165, 32); stroke: rgb(196, 149, 29);"></circle><line  x1="80" y1="266.6666666666667" x2="80" y2="400" id="v-976" stroke="#c4951d" stroke-width="2" style="stroke: rgb(196, 149, 29);"></line><line  x1="320" y1="266.6666666666667" x2="320" y2="400" id="v-977" stroke="#c4951d" stroke-width="2" style="stroke: rgb(196, 149, 29);"></line><text  id="v-971" font-size="32" xml:space="preserve" y="0.8em" font-weight="bold" text-anchor="middle" pointer-events="visible" font-family="Open Sans" fill="#ffffff" transform="matrix(1,0,0,1,200,203.7)" style="fill: rgb(255, 255, 255);"><tspan dy="0" >Comercializador/</tspan><tspan dy="1.2em" x="0" >Exportador</tspan></text><text  id="v-972" font-size="15" xml:space="preserve" y="0.8em" text-anchor="middle" font-family="Open Sans" fill="#ffffff" transform="matrix(1,0,0,1,200,280.5)" style="fill: rgb(255, 255, 255);"><tspan dy="0" >[Person]</tspan></text><text  id="v-973" font-size="22" xml:space="preserve" y="0.8em" text-anchor="middle" font-family="Open Sans" fill="#ffffff" transform="matrix(1,0,0,1,200,308.5)" style="fill: rgb(255, 255, 255);"><tspan dy="0" >Empresa que gestiona órdenes</tspan><tspan dy="1.2em" x="0" >comerciales y logística.</tspan></text><g  id="v-974" font-weight="normal" text-anchor="middle" color="#ffffff" transform="matrix(1,0,0,1,197.5,368)" display="none" style="fill: rgb(255, 255, 255);"><g ></g><g ></g><g ></g><g ></g></g><image  id="v-975"></image></g></g><!--z-index:41--><g   id="j_73"  transform="translate(3949,151)" style=""><g  id="v-984" style="opacity: 1;"><rect  x="0" y="160" width="400" height="240" rx="70" id="v-986" stroke="#e65940" stroke-width="2" pointer-events="visiblePainted" fill="#ff6347" style="fill: rgb(255, 99, 71); stroke: rgb(230, 89, 64);"></rect><circle  cx="200" cy="88.88888888888889" r="88.88888888888889" id="v-985" stroke="#e65940" stroke-width="2" pointer-events="visiblePainted" fill="#ff6347" style="fill: rgb(255, 99, 71); stroke: rgb(230, 89, 64);"></circle><line  x1="80" y1="266.6666666666667" x2="80" y2="400" id="v-992" stroke="#e65940" stroke-width="2" style="stroke: rgb(230, 89, 64);"></line><line  x1="320" y1="266.6666666666667" x2="320" y2="400" id="v-993" stroke="#e65940" stroke-width="2" style="stroke: rgb(230, 89, 64);"></line><text  id="v-987" font-size="32" xml:space="preserve" y="0.8em" font-weight="bold" text-anchor="middle" pointer-events="visible" font-family="Open Sans" fill="#ffffff" transform="matrix(1,0,0,1,200,222.9)" style="fill: rgb(255, 255, 255);"><tspan dy="0" >Consumidor Final</tspan></text><text  id="v-988" font-size="15" xml:space="preserve" y="0.8em" text-anchor="middle" font-family="Open Sans" fill="#ffffff" transform="matrix(1,0,0,1,200,261.3)" style="fill: rgb(255, 255, 255);"><tspan dy="0" >[Person]</tspan></text><text  id="v-989" font-size="22" xml:space="preserve" y="0.8em" text-anchor="middle" font-family="Open Sans" fill="#ffffff" transform="matrix(1,0,0,1,200,289.3)" style="fill: rgb(255, 255, 255);"><tspan dy="0" >Consulta trazabilidad escaneando</tspan><tspan dy="1.2em" x="0" >códigos QR.</tspan></text><g  id="v-990" font-weight="normal" text-anchor="middle" color="#ffffff" transform="matrix(1,0,0,1,197.5,368)" display="none" style="fill: rgb(255, 255, 255);"><g ></g><g ></g><g ></g><g ></g></g><image  id="v-991"></image></g></g><!--z-index:42--><g   id="j_74"  transform="translate(4649,151)" style=""><g  id="v-997" style="opacity: 1;"><rect  x="0" y="160" width="400" height="240" rx="70" id="v-999" stroke="#8465c5" stroke-width="2" pointer-events="visiblePainted" fill="#9370db" style="fill: rgb(147, 112, 219); stroke: rgb(132, 101, 197);"></rect><circle  cx="200" cy="88.88888888888889" r="88.88888888888889" id="v-998" stroke="#8465c5" stroke-width="2" pointer-events="visiblePainted" fill="#9370db" style="fill: rgb(147, 112, 219); stroke: rgb(132, 101, 197);"></circle><line  x1="80" y1="266.6666666666667" x2="80" y2="400" id="v-1005" stroke="#8465c5" stroke-width="2" style="stroke: rgb(132, 101, 197);"></line><line  x1="320" y1="266.6666666666667" x2="320" y2="400" id="v-1006" stroke="#8465c5" stroke-width="2" style="stroke: rgb(132, 101, 197);"></line><text  id="v-1000" font-size="32" xml:space="preserve" y="0.8em" font-weight="bold" text-anchor="middle" pointer-events="visible" font-family="Open Sans" fill="#ffffff" transform="matrix(1,0,0,1,200,222.9)" style="fill: rgb(255, 255, 255);"><tspan dy="0" >Administrador</tspan></text><text  id="v-1001" font-size="15" xml:space="preserve" y="0.8em" text-anchor="middle" font-family="Open Sans" fill="#ffffff" transform="matrix(1,0,0,1,200,261.3)" style="fill: rgb(255, 255, 255);"><tspan dy="0" >[Person]</tspan></text><text  id="v-1002" font-size="22" xml:space="preserve" y="0.8em" text-anchor="middle" font-family="Open Sans" fill="#ffffff" transform="matrix(1,0,0,1,200,289.3)" style="fill: rgb(255, 255, 255);"><tspan dy="0" >Gestiona la plataforma y configura</tspan><tspan dy="1.2em" x="0" >usuarios.</tspan></text><g  id="v-1003" font-weight="normal" text-anchor="middle" color="#ffffff" transform="matrix(1,0,0,1,197.5,368)" display="none" style="fill: rgb(255, 255, 255);"><g ></g><g ></g><g ></g><g ></g></g><image  id="v-1004"></image></g></g><!--z-index:43--><g   id="j_75"  transform="translate(5349,151)" style=""><g  id="v-1013" style="opacity: 1;"><rect  x="0" y="160" width="400" height="240" rx="70" id="v-1015" stroke="#1da099" stroke-width="2" pointer-events="visiblePainted" fill="#20b2aa" style="fill: rgb(32, 178, 170); stroke: rgb(29, 160, 153);"></rect><circle  cx="200" cy="88.88888888888889" r="88.88888888888889" id="v-1014" stroke="#1da099" stroke-width="2" pointer-events="visiblePainted" fill="#20b2aa" style="fill: rgb(32, 178, 170); stroke: rgb(29, 160, 153);"></circle><line  x1="80" y1="266.6666666666667" x2="80" y2="400" id="v-1021" stroke="#1da099" stroke-width="2" style="stroke: rgb(29, 160, 153);"></line><line  x1="320" y1="266.6666666666667" x2="320" y2="400" id="v-1022" stroke="#1da099" stroke-width="2" style="stroke: rgb(29, 160, 153);"></line><text  id="v-1016" font-size="32" xml:space="preserve" y="0.8em" font-weight="bold" text-anchor="middle" pointer-events="visible" font-family="Open Sans" fill="#ffffff" transform="matrix(1,0,0,1,200,222.9)" style="fill: rgb(255, 255, 255);"><tspan dy="0" >Auditor/Certificador</tspan></text><text  id="v-1017" font-size="15" xml:space="preserve" y="0.8em" text-anchor="middle" font-family="Open Sans" fill="#ffffff" transform="matrix(1,0,0,1,200,261.3)" style="fill: rgb(255, 255, 255);"><tspan dy="0" >[Person]</tspan></text><text  id="v-1018" font-size="22" xml:space="preserve" y="0.8em" text-anchor="middle" font-family="Open Sans" fill="#ffffff" transform="matrix(1,0,0,1,200,289.3)" style="fill: rgb(255, 255, 255);"><tspan dy="0" >Verifica cumplimiento en registros</tspan><tspan dy="1.2em" x="0" >inmutables.</tspan></text><g  id="v-1019" font-weight="normal" text-anchor="middle" color="#ffffff" transform="matrix(1,0,0,1,197.5,368)" display="none" style="fill: rgb(255, 255, 255);"><g ></g><g ></g><g ></g><g ></g></g><image  id="v-1020"></image></g></g><!--z-index:44--><g   id="j_76"  transform="translate(5449,1451)" style=""><g  id="v-1026" style="opacity: 1;"><rect  id="v-1027" rx="1" ry="1" stroke="#8a8a8a" stroke-width="2" pointer-events="visiblePainted" fill="#999999" width="450" height="300" style="fill: rgb(153, 153, 153); stroke: rgb(138, 138, 138);"></rect><text  id="v-1028" font-size="34" xml:space="preserve" y="0.8em" font-weight="bold" text-anchor="middle" pointer-events="visible" font-family="Open Sans" fill="#ffffff" transform="matrix(1,0,0,1,225,88.1)" style="fill: rgb(255, 255, 255);"><tspan dy="0" >Mapbox</tspan></text><text  id="v-1029" font-size="17" xml:space="preserve" y="0.8em" text-anchor="middle" font-family="Open Sans" fill="#ffffff" transform="matrix(1,0,0,1,225,128.9)" style="fill: rgb(255, 255, 255);"><tspan dy="0" >[Software System]</tspan></text><text  id="v-1030" font-size="24" xml:space="preserve" y="0.8em" text-anchor="middle" font-family="Open Sans" fill="#ffffff" transform="matrix(1,0,0,1,225,159.3)" style="fill: rgb(255, 255, 255);"><tspan dy="0" >Mapas base y servicios de</tspan><tspan dy="1.2em" x="0" >geolocalización.</tspan></text><g  id="v-1031" color="#ffffff" transform="matrix(1,0,0,1,222.5,268)" display="none" style="fill: rgb(255, 255, 255);"><g ></g><g ></g><g ></g><g ></g></g><image  id="v-1032"></image></g></g><!--z-index:45--><g   id="j_77"  transform="translate(6199,1451)" style=""><g  id="v-1036" style="opacity: 1;"><rect  id="v-1037" rx="1" ry="1" stroke="#8a8a8a" stroke-width="2" pointer-events="visiblePainted" fill="#999999" width="450" height="300" style="fill: rgb(153, 153, 153); stroke: rgb(138, 138, 138);"></rect><text  id="v-1038" font-size="34" xml:space="preserve" y="0.8em" font-weight="bold" text-anchor="middle" pointer-events="visible" font-family="Open Sans" fill="#ffffff" transform="matrix(1,0,0,1,225,88.1)" style="fill: rgb(255, 255, 255);"><tspan dy="0" >Google Maps</tspan></text><text  id="v-1039" font-size="17" xml:space="preserve" y="0.8em" text-anchor="middle" font-family="Open Sans" fill="#ffffff" transform="matrix(1,0,0,1,225,128.9)" style="fill: rgb(255, 255, 255);"><tspan dy="0" >[Software System]</tspan></text><text  id="v-1040" font-size="24" xml:space="preserve" y="0.8em" text-anchor="middle" font-family="Open Sans" fill="#ffffff" transform="matrix(1,0,0,1,225,159.3)" style="fill: rgb(255, 255, 255);"><tspan dy="0" >Mapas alternativos para</tspan><tspan dy="1.2em" x="0" >aplicaciones móviles.</tspan></text><g  id="v-1041" color="#ffffff" transform="matrix(1,0,0,1,222.5,268)" display="none" style="fill: rgb(255, 255, 255);"><g ></g><g ></g><g ></g><g ></g></g><image  id="v-1042"></image></g></g><!--z-index:46--><g   id="j_78"  transform="translate(6949,1451)" style=""><g  id="v-1046" style="opacity: 1;"><rect  id="v-1047" rx="1" ry="1" stroke="#8a8a8a" stroke-width="2" pointer-events="visiblePainted" fill="#999999" width="450" height="300" style="fill: rgb(153, 153, 153); stroke: rgb(138, 138, 138);"></rect><text  id="v-1048" font-size="34" xml:space="preserve" y="0.8em" font-weight="bold" text-anchor="middle" pointer-events="visible" font-family="Open Sans" fill="#ffffff" transform="matrix(1,0,0,1,225,88.1)" style="fill: rgb(255, 255, 255);"><tspan dy="0" >Beyco Platform</tspan></text><text  id="v-1049" font-size="17" xml:space="preserve" y="0.8em" text-anchor="middle" font-family="Open Sans" fill="#ffffff" transform="matrix(1,0,0,1,225,128.9)" style="fill: rgb(255, 255, 255);"><tspan dy="0" >[Software System]</tspan></text><text  id="v-1050" font-size="24" xml:space="preserve" y="0.8em" text-anchor="middle" font-family="Open Sans" fill="#ffffff" transform="matrix(1,0,0,1,225,159.3)" style="fill: rgb(255, 255, 255);"><tspan dy="0" >Plataforma comercial con</tspan><tspan dy="1.2em" x="0" >autenticación OAuth.</tspan></text><g  id="v-1051" color="#ffffff" transform="matrix(1,0,0,1,222.5,268)" display="none" style="fill: rgb(255, 255, 255);"><g ></g><g ></g><g ></g><g ></g></g><image  id="v-1052"></image></g></g><!--z-index:47--><g   id="j_79"  transform="translate(199,1451)" style=""><g  id="v-1059" style="opacity: 1;"><rect  id="v-1060" rx="1" ry="1" stroke="#8a8a8a" stroke-width="2" pointer-events="visiblePainted" fill="#999999" width="450" height="300" style="fill: rgb(153, 153, 153); stroke: rgb(138, 138, 138);"></rect><text  id="v-1061" font-size="34" xml:space="preserve" y="0.8em" font-weight="bold" text-anchor="middle" pointer-events="visible" font-family="Open Sans" fill="#ffffff" transform="matrix(1,0,0,1,225,88.1)" style="fill: rgb(255, 255, 255);"><tspan dy="0" >Exchange Rate API</tspan></text><text  id="v-1062" font-size="17" xml:space="preserve" y="0.8em" text-anchor="middle" font-family="Open Sans" fill="#ffffff" transform="matrix(1,0,0,1,225,128.9)" style="fill: rgb(255, 255, 255);"><tspan dy="0" >[Software System]</tspan></text><text  id="v-1063" font-size="24" xml:space="preserve" y="0.8em" text-anchor="middle" font-family="Open Sans" fill="#ffffff" transform="matrix(1,0,0,1,225,159.3)" style="fill: rgb(255, 255, 255);"><tspan dy="0" >Conversión de tipos de cambio de</tspan><tspan dy="1.2em" x="0" >monedas.</tspan></text><g  id="v-1064" color="#ffffff" transform="matrix(1,0,0,1,222.5,268)" display="none" style="fill: rgb(255, 255, 255);"><g ></g><g ></g><g ></g><g ></g></g><image  id="v-1065"></image></g></g><!--z-index:48--><g   id="j_80"  transform="translate(949,1451)" style=""><g  id="v-1072" style="opacity: 1;"><rect  id="v-1073" rx="1" ry="1" stroke="#8a8a8a" stroke-width="2" pointer-events="visiblePainted" fill="#999999" width="450" height="300" style="fill: rgb(153, 153, 153); stroke: rgb(138, 138, 138);"></rect><text  id="v-1074" font-size="34" xml:space="preserve" y="0.8em" font-weight="bold" text-anchor="middle" pointer-events="visible" font-family="Open Sans" fill="#ffffff" transform="matrix(1,0,0,1,225,88.1)" style="fill: rgb(255, 255, 255);"><tspan dy="0" >Servicio de Email</tspan></text><text  id="v-1075" font-size="17" xml:space="preserve" y="0.8em" text-anchor="middle" font-family="Open Sans" fill="#ffffff" transform="matrix(1,0,0,1,225,128.9)" style="fill: rgb(255, 255, 255);"><tspan dy="0" >[Software System]</tspan></text><text  id="v-1076" font-size="24" xml:space="preserve" y="0.8em" text-anchor="middle" font-family="Open Sans" fill="#ffffff" transform="matrix(1,0,0,1,225,159.3)" style="fill: rgb(255, 255, 255);"><tspan dy="0" >Notificaciones y reportes por</tspan><tspan dy="1.2em" x="0" >correo.</tspan></text><g  id="v-1077" color="#ffffff" transform="matrix(1,0,0,1,222.5,268)" display="none" style="fill: rgb(255, 255, 255);"><g ></g><g ></g><g ></g><g ></g></g><image  id="v-1078"></image></g></g><!--z-index:49--><g   id="j_81"  transform="translate(1699,1451)" style=""><g  id="v-1082" style="opacity: 1;"><rect  id="v-1083" rx="1" ry="1" stroke="#8a8a8a" stroke-width="2" pointer-events="visiblePainted" fill="#999999" width="450" height="300" style="fill: rgb(153, 153, 153); stroke: rgb(138, 138, 138);"></rect><text  id="v-1084" font-size="34" xml:space="preserve" y="0.8em" font-weight="bold" text-anchor="middle" pointer-events="visible" font-family="Open Sans" fill="#ffffff" transform="matrix(1,0,0,1,225,102.5)" style="fill: rgb(255, 255, 255);"><tspan dy="0" >Slack</tspan></text><text  id="v-1085" font-size="17" xml:space="preserve" y="0.8em" text-anchor="middle" font-family="Open Sans" fill="#ffffff" transform="matrix(1,0,0,1,225,143.3)" style="fill: rgb(255, 255, 255);"><tspan dy="0" >[Software System]</tspan></text><text  id="v-1086" font-size="24" xml:space="preserve" y="0.8em" text-anchor="middle" font-family="Open Sans" fill="#ffffff" transform="matrix(1,0,0,1,225,173.7)" style="fill: rgb(255, 255, 255);"><tspan dy="0" >Notificaciones y alertas del sistema.</tspan></text><g  id="v-1087" color="#ffffff" transform="matrix(1,0,0,1,222.5,268)" display="none" style="fill: rgb(255, 255, 255);"><g ></g><g ></g><g ></g><g ></g></g><image  id="v-1088"></image></g></g><!--z-index:50--><g   id="j_82"  transform="translate(2449,1451)" style=""><g  id="v-1092" style="opacity: 1;"><rect  id="v-1093" rx="1" ry="1" stroke="#8a8a8a" stroke-width="2" pointer-events="visiblePainted" fill="#999999" width="450" height="300" style="fill: rgb(153, 153, 153); stroke: rgb(138, 138, 138);"></rect><text  id="v-1094" font-size="34" xml:space="preserve" y="0.8em" font-weight="bold" text-anchor="middle" pointer-events="visible" font-family="Open Sans" fill="#ffffff" transform="matrix(1,0,0,1,225,88.1)" style="fill: rgb(255, 255, 255);"><tspan dy="0" >Almacenamiento</tspan></text><text  id="v-1095" font-size="17" xml:space="preserve" y="0.8em" text-anchor="middle" font-family="Open Sans" fill="#ffffff" transform="matrix(1,0,0,1,225,128.9)" style="fill: rgb(255, 255, 255);"><tspan dy="0" >[Software System]</tspan></text><text  id="v-1096" font-size="24" xml:space="preserve" y="0.8em" text-anchor="middle" font-family="Open Sans" fill="#ffffff" transform="matrix(1,0,0,1,225,159.3)" style="fill: rgb(255, 255, 255);"><tspan dy="0" >Imágenes y documentos de</tspan><tspan dy="1.2em" x="0" >certificación.</tspan></text><g  id="v-1097" color="#ffffff" transform="matrix(1,0,0,1,222.5,268)" display="none" style="fill: rgb(255, 255, 255);"><g ></g><g ></g><g ></g><g ></g></g><image  id="v-1098"></image></g></g><!--z-index:51--><g   id="j_83"  transform="translate(3199,1451)" style=""><g  id="v-1102" style="opacity: 1;"><rect  id="v-1103" rx="1" ry="1" stroke="#8a8a8a" stroke-width="2" pointer-events="visiblePainted" fill="#999999" width="450" height="300" style="fill: rgb(153, 153, 153); stroke: rgb(138, 138, 138);"></rect><text  id="v-1104" font-size="34" xml:space="preserve" y="0.8em" font-weight="bold" text-anchor="middle" pointer-events="visible" font-family="Open Sans" fill="#ffffff" transform="matrix(1,0,0,1,225,102.5)" style="fill: rgb(255, 255, 255);"><tspan dy="0" >Apple App Store</tspan></text><text  id="v-1105" font-size="17" xml:space="preserve" y="0.8em" text-anchor="middle" font-family="Open Sans" fill="#ffffff" transform="matrix(1,0,0,1,225,143.3)" style="fill: rgb(255, 255, 255);"><tspan dy="0" >[Software System]</tspan></text><text  id="v-1106" font-size="24" xml:space="preserve" y="0.8em" text-anchor="middle" font-family="Open Sans" fill="#ffffff" transform="matrix(1,0,0,1,225,173.7)" style="fill: rgb(255, 255, 255);"><tspan dy="0" >Distribución de aplicación iOS.</tspan></text><g  id="v-1107" color="#ffffff" transform="matrix(1,0,0,1,222.5,268)" display="none" style="fill: rgb(255, 255, 255);"><g ></g><g ></g><g ></g><g ></g></g><image  id="v-1108"></image></g></g><!--z-index:52--><g   id="j_84"  transform="translate(3949,1451)" style=""><g  id="v-1115" style="opacity: 1;"><rect  id="v-1116" rx="1" ry="1" stroke="#8a8a8a" stroke-width="2" pointer-events="visiblePainted" fill="#999999" width="450" height="300" style="fill: rgb(153, 153, 153); stroke: rgb(138, 138, 138);"></rect><text  id="v-1117" font-size="34" xml:space="preserve" y="0.8em" font-weight="bold" text-anchor="middle" pointer-events="visible" font-family="Open Sans" fill="#ffffff" transform="matrix(1,0,0,1,225,102.5)" style="fill: rgb(255, 255, 255);"><tspan dy="0" >Google Play Store</tspan></text><text  id="v-1118" font-size="17" xml:space="preserve" y="0.8em" text-anchor="middle" font-family="Open Sans" fill="#ffffff" transform="matrix(1,0,0,1,225,143.3)" style="fill: rgb(255, 255, 255);"><tspan dy="0" >[Software System]</tspan></text><text  id="v-1119" font-size="24" xml:space="preserve" y="0.8em" text-anchor="middle" font-family="Open Sans" fill="#ffffff" transform="matrix(1,0,0,1,225,173.7)" style="fill: rgb(255, 255, 255);"><tspan dy="0" >Distribución de aplicación Android.</tspan></text><g  id="v-1120" color="#ffffff" transform="matrix(1,0,0,1,222.5,268)" display="none" style="fill: rgb(255, 255, 255);"><g ></g><g ></g><g ></g><g ></g></g><image  id="v-1121"></image></g></g><!--z-index:53--><g   id="j_85"  transform="translate(4699,1451)" style=""><g  id="v-1125" style="opacity: 1;"><rect  id="v-1126" rx="1" ry="1" stroke="#8a8a8a" stroke-width="2" pointer-events="visiblePainted" fill="#999999" width="450" height="300" style="fill: rgb(153, 153, 153); stroke: rgb(138, 138, 138);"></rect><text  id="v-1127" font-size="34" xml:space="preserve" y="0.8em" font-weight="bold" text-anchor="middle" pointer-events="visible" font-family="Open Sans" fill="#ffffff" transform="matrix(1,0,0,1,225,102.5)" style="fill: rgb(255, 255, 255);"><tspan dy="0" >Expo EAS</tspan></text><text  id="v-1128" font-size="17" xml:space="preserve" y="0.8em" text-anchor="middle" font-family="Open Sans" fill="#ffffff" transform="matrix(1,0,0,1,225,143.3)" style="fill: rgb(255, 255, 255);"><tspan dy="0" >[Software System]</tspan></text><text  id="v-1129" font-size="24" xml:space="preserve" y="0.8em" text-anchor="middle" font-family="Open Sans" fill="#ffffff" transform="matrix(1,0,0,1,225,173.7)" style="fill: rgb(255, 255, 255);"><tspan dy="0" >Builds automáticos y OTA updates.</tspan></text><g  id="v-1130" color="#ffffff" transform="matrix(1,0,0,1,222.5,268)" display="none" style="fill: rgb(255, 255, 255);"><g ></g><g ></g><g ></g><g ></g></g><image  id="v-1131"></image></g></g><!--z-index:54--><g   id="j_86"  transform="translate(3574,851)" style=""><g  id="v-1135" style="opacity: 1;"><rect  id="v-1136" rx="1" ry="1" stroke="#0f5eaa" stroke-width="2" pointer-events="visiblePainted" fill="#1168bd" width="450" height="300" style="fill: rgb(17, 104, 189); stroke: rgb(15, 94, 170);"></rect><text  id="v-1137" font-size="34" xml:space="preserve" y="0.8em" font-weight="bold" text-anchor="middle" pointer-events="visible" font-family="Open Sans" fill="#ffffff" transform="matrix(1,0,0,1,225,73.7)" style="fill: rgb(255, 255, 255);"><tspan dy="0" >INATrace</tspan></text><text  id="v-1138" font-size="17" xml:space="preserve" y="0.8em" text-anchor="middle" font-family="Open Sans" fill="#ffffff" transform="matrix(1,0,0,1,225,114.5)" style="fill: rgb(255, 255, 255);"><tspan dy="0" >[Software System]</tspan></text><text  id="v-1139" font-size="24" xml:space="preserve" y="0.8em" text-anchor="middle" font-family="Open Sans" fill="#ffffff" transform="matrix(1,0,0,1,225,144.9)" style="fill: rgb(255, 255, 255);"><tspan dy="0" >Plataforma integral de trazabilidad</tspan><tspan dy="1.2em" x="0" >agrícola que combina tecnologías</tspan><tspan dy="1.2em" x="0" >web, móviles y blockchain.</tspan></text><g  id="v-1140" color="#ffffff" transform="matrix(1,0,0,1,210,268)" display="none" style="fill: rgb(255, 255, 255);"><g  transform="translate(5 0)"><svg xmlns="http://www.w3.org/2000/svg" width="20" height="20" fill="currentColor" viewBox="0 0 16 16"><path fill-rule="evenodd" d="M6.5 12a5.5 5.5 0 1 0 0-11 5.5 5.5 0 0 0 0 11zM13 6.5a6.5 6.5 0 1 1-13 0 6.5 6.5 0 0 1 13 0z"></path><path d="M10.344 11.742c.03.04.062.078.098.115l3.85 3.85a1 1 0 0 0 1.415-1.414l-3.85-3.85a1.007 1.007 0 0 0-.115-.1 6.538 6.538 0 0 1-1.398 1.4z"></path><path fill-rule="evenodd" d="M6.5 3a.5.5 0 0 1 .5.5V6h2.5a.5.5 0 0 1 0 1H7v2.5a.5.5 0 0 1-1 0V7H3.5a.5.5 0 0 1 0-1H6V3.5a.5.5 0 0 1 .5-.5z"></path></svg></g><g ></g><g ></g><g ></g></g><image  id="v-1141"></image></g></g><!--z-index:55--><g   id="j_87" ><path  stroke="#707070" d="M 2249 465 L 2390 546 C 2396 549.3333333333333 2402.333333333333 552 2409 554 L 3574 929" id="v-1155" stroke-width="2" stroke-dasharray="30 30" fill="none" style="opacity: 1;"></path><path  fill="black" stroke="black" d="M 0 0 0 0" transform="matrix(0.868253833294327,0.49612022834158553,-0.49612022834158553,0.868253833294327,2249,465.2900085449219)"></path><path  fill="#707070" stroke="#707070" d="M 20 0 L 0 10 L 20 20 z" id="v-1157" transform="matrix(-0.9520282111733995,-0.30601026964789424,0.30601026964789424,-0.9520282111733995,3570.93991574338,938.2002578550879)" style="opacity: 1;"></path><path  d="M 2249 465 L 2390 546 C 2396 549.3333333333333 2402.333333333333 552 2409 554 L 3574 929" id="v-1156" fill="none" style="cursor: auto; pointer-events: visiblepainted;"></path><g ><g id="v-1149"  label-idx="0" cursor="move" transform="matrix(1,0,0,1,2904.27587890625,713.4235229492188)" style="cursor: default; opacity: 1;"><rect joint-selector="rect" id="v-1152" fill="#ffffff" rx="3" ry="3" pointer-events="none" width="192.59765625" height="58.289194107055664" transform="matrix(1,0,0,1,-96.3,-29.1)"></rect><text joint-selector="text" id="v-1151" font-size="24px" xml:space="preserve" y="0.8em" fill="#707070" text-anchor="middle" pointer-events="none" font-family="Open Sans" font-weight="normal" transform="matrix(1,0,0,1,0,-24.6)"><tspan dy="0" >Captura datos en</tspan><tspan dy="1.2em" x="0" >campo</tspan></text></g><g id="v-1150"  label-idx="1" cursor="move" transform="matrix(1,0,0,1,2894.27587890625,754.2235717773438)" style="cursor: default; opacity: 1;"><rect joint-selector="rect" id="v-1154" fill="#ffffff" rx="3" ry="3"  width="0" height="0" transform="matrix(1,0,0,1,0,0)" display="none"></rect><text joint-selector="text" id="v-1153" fill="#000000" font-size="14" text-anchor="middle" pointer-events="none"></text></g></g><g  display="none" style="display: none;"><g  transform="translate(2399, 551)" id="v-1469"><circle  idx="0" r="10"></circle><path  idx="0" d="M16,5.333c-7.732,0-14,4.701-14,10.5c0,1.982,0.741,3.833,2.016,5.414L2,25.667l5.613-1.441c2.339,1.317,5.237,2.107,8.387,2.107c7.732,0,14-4.701,14-10.5C30,10.034,23.732,5.333,16,5.333z" transform="translate(5, -33)"></path><path  idx="0" transform="scale(.8) translate(9.5, -37)" d="M24.778,21.419 19.276,15.917 24.777,10.415 21.949,7.585 16.447,13.087 10.945,7.585 8.117,10.415 13.618,15.917 8.116,21.419 10.946,24.248 16.447,18.746 21.948,24.248z"><title>Remove vertex.</title></path></g></g><g  id="v-1159" display="none"><g  id="v-1147"><path  end="source" d="M 26 0 L 0 13 L 26 26 z"></path></g><g  id="v-1148"><path  end="target" d="M 26 0 L 0 13 L 26 26 z"></path></g></g><g  id="v-1158" display="none"><g  id="v-1145" transform="translate(2283.6842216988307, 484.9249784227325) "><g  event="remove"><circle r="11"></circle><path transform="scale(.8) translate(-16, -16)" d="M24.778,21.419 19.276,15.917 24.777,10.415 21.949,7.585 16.447,13.087 10.945,7.585 8.117,10.415 13.618,15.917 8.116,21.419 10.946,24.248 16.447,18.746 21.948,24.248z"></path><title>Remove link.</title></g><g  event="link:options"><circle r="11" transform="translate(25)"></circle><path fill="white" transform="scale(.55) translate(29, -16)" d="M31.229,17.736c0.064-0.571,0.104-1.148,0.104-1.736s-0.04-1.166-0.104-1.737l-4.377-1.557c-0.218-0.716-0.504-1.401-0.851-2.05l1.993-4.192c-0.725-0.91-1.549-1.734-2.458-2.459l-4.193,1.994c-0.647-0.347-1.334-0.632-2.049-0.849l-1.558-4.378C17.165,0.708,16.588,0.667,16,0.667s-1.166,0.041-1.737,0.105L12.707,5.15c-0.716,0.217-1.401,0.502-2.05,0.849L6.464,4.005C5.554,4.73,4.73,5.554,4.005,6.464l1.994,4.192c-0.347,0.648-0.632,1.334-0.849,2.05l-4.378,1.557C0.708,14.834,0.667,15.412,0.667,16s0.041,1.165,0.105,1.736l4.378,1.558c0.217,0.715,0.502,1.401,0.849,2.049l-1.994,4.193c0.725,0.909,1.549,1.733,2.459,2.458l4.192-1.993c0.648,0.347,1.334,0.633,2.05,0.851l1.557,4.377c0.571,0.064,1.148,0.104,1.737,0.104c0.588,0,1.165-0.04,1.736-0.104l1.558-4.377c0.715-0.218,1.399-0.504,2.049-0.851l4.193,1.993c0.909-0.725,1.733-1.549,2.458-2.458l-1.993-4.193c0.347-0.647,0.633-1.334,0.851-2.049L31.229,17.736zM16,20.871c-2.69,0-4.872-2.182-4.872-4.871c0-2.69,2.182-4.872,4.872-4.872c2.689,0,4.871,2.182,4.871,4.872C20.871,18.689,18.689,20.871,16,20.871z"></path><title>Link options.</title></g></g></g></g><!--z-index:56--><g   id="j_88" ><path  stroke="#707070" d="M 2949 475 L 3574 862" id="v-1172" stroke-width="2" stroke-dasharray="30 30" fill="none" style="opacity: 1;"></path><path  fill="black" stroke="black" d="M 0 0 0 0" transform="matrix(0.8502680429835641,0.526349935956014,-0.526349935956014,0.8502680429835641,2949,474.80999755859375)"></path><path  fill="#707070" stroke="#707070" d="M 20 0 L 0 10 L 20 20 z" id="v-1174" transform="matrix(-0.8502679904177597,-0.5263500208710402,0.5263500208710402,-0.8502679904177597,3568.736494148592,870.2126522808568)" style="opacity: 1;"></path><path  d="M 2949 475 L 3574 862" id="v-1173" fill="none" style="cursor: auto; pointer-events: visiblepainted;"></path><g ><g id="v-1166"  label-idx="0" cursor="move" transform="matrix(1,0,0,1,3261.5,668.5)" style="cursor: default; opacity: 1;"><rect joint-selector="rect" id="v-1169" fill="#ffffff" rx="3" ry="3" pointer-events="none" width="101.234375" height="58.289194107055664" transform="matrix(1,0,0,1,-50.6,-29.1)"></rect><text joint-selector="text" id="v-1168" font-size="24px" xml:space="preserve" y="0.8em" fill="#707070" text-anchor="middle" pointer-events="none" font-family="Open Sans" font-weight="normal" transform="matrix(1,0,0,1,0,-24.6)"><tspan dy="0" >Gestiona</tspan><tspan dy="1.2em" x="0" >procesos</tspan></text></g><g id="v-1167"  label-idx="1" cursor="move" transform="matrix(1,0,0,1,3251.5,709.2999877929688)" style="cursor: default; opacity: 1;"><rect joint-selector="rect" id="v-1171" fill="#ffffff" rx="3" ry="3"  width="0" height="0" transform="matrix(1,0,0,1,0,0)" display="none"></rect><text joint-selector="text" id="v-1170" fill="#000000" font-size="14" text-anchor="middle" pointer-events="none"></text></g></g><g  display="none" style="display: none;"></g><g  id="v-1176" display="none"><g  id="v-1164"><path  end="source" d="M 26 0 L 0 13 L 26 26 z"></path></g><g  id="v-1165"><path  end="target" d="M 26 0 L 0 13 L 26 26 z"></path></g></g><g  id="v-1175" display="none"><g  id="v-1163" transform="translate(2983.008286407534, 496.0579309435452) "><g  event="remove"><circle r="11"></circle><path transform="scale(.8) translate(-16, -16)" d="M24.778,21.419 19.276,15.917 24.777,10.415 21.949,7.585 16.447,13.087 10.945,7.585 8.117,10.415 13.618,15.917 8.116,21.419 10.946,24.248 16.447,18.746 21.948,24.248z"></path><title>Remove link.</title></g><g  event="link:options"><circle r="11" transform="translate(25)"></circle><path fill="white" transform="scale(.55) translate(29, -16)" d="M31.229,17.736c0.064-0.571,0.104-1.148,0.104-1.736s-0.04-1.166-0.104-1.737l-4.377-1.557c-0.218-0.716-0.504-1.401-0.851-2.05l1.993-4.192c-0.725-0.91-1.549-1.734-2.458-2.459l-4.193,1.994c-0.647-0.347-1.334-0.632-2.049-0.849l-1.558-4.378C17.165,0.708,16.588,0.667,16,0.667s-1.166,0.041-1.737,0.105L12.707,5.15c-0.716,0.217-1.401,0.502-2.05,0.849L6.464,4.005C5.554,4.73,4.73,5.554,4.005,6.464l1.994,4.192c-0.347,0.648-0.632,1.334-0.849,2.05l-4.378,1.557C0.708,14.834,0.667,15.412,0.667,16s0.041,1.165,0.105,1.736l4.378,1.558c0.217,0.715,0.502,1.401,0.849,2.049l-1.994,4.193c0.725,0.909,1.549,1.733,2.459,2.458l4.192-1.993c0.648,0.347,1.334,0.633,2.05,0.851l1.557,4.377c0.571,0.064,1.148,0.104,1.737,0.104c0.588,0,1.165-0.04,1.736-0.104l1.558-4.377c0.715-0.218,1.399-0.504,2.049-0.851l4.193,1.993c0.909-0.725,1.733-1.549,2.458-2.458l-1.993-4.193c0.347-0.647,0.633-1.334,0.851-2.049L31.229,17.736zM16,20.871c-2.69,0-4.872-2.182-4.872-4.871c0-2.69,2.182-4.872,4.872-4.872c2.689,0,4.871,2.182,4.871,4.872C20.871,18.689,18.689,20.871,16,20.871z"></path><title>Link options.</title></g></g></g></g><!--z-index:57--><g   id="j_89" ><path  stroke="#707070" d="M 3557 551 L 3718 851" id="v-1189" stroke-width="2" stroke-dasharray="30 30" fill="none" style="opacity: 1;"></path><path  fill="black" stroke="black" d="M 0 0 0 0" transform="matrix(0.47410332155505014,0.8804692160947302,-0.8804692160947302,0.47410332155505014,3556.68994140625,551)"></path><path  fill="#707070" stroke="#707070" d="M 20 0 L 0 10 L 20 20 z" id="v-1191" transform="matrix(-0.4741032629342655,-0.8804692476600661,0.8804692476600661,-0.4741032629342655,3709.425353824617,855.7410376059433)" style="opacity: 1;"></path><path  d="M 3557 551 L 3718 851" id="v-1190" fill="none" style="cursor: auto; pointer-events: visiblepainted;"></path><g ><g id="v-1183"  label-idx="0" cursor="move" transform="matrix(1,0,0,1,3637.5,701)" style="cursor: default; opacity: 1;"><rect joint-selector="rect" id="v-1186" fill="#ffffff" rx="3" ry="3" pointer-events="none" width="122.015625" height="57.299997329711914" transform="matrix(1,0,0,1,-61,-28.6)"></rect><text joint-selector="text" id="v-1185" font-size="24px" xml:space="preserve" y="0.8em" fill="#707070" text-anchor="middle" pointer-events="none" font-family="Open Sans" font-weight="normal" transform="matrix(1,0,0,1,0,-24.1)"><tspan dy="0" >Administra</tspan><tspan dy="1.2em" x="0" >órdenes</tspan></text></g><g id="v-1184"  label-idx="1" cursor="move" transform="matrix(1,0,0,1,3627.5,741.7999877929688)" style="cursor: default; opacity: 1;"><rect joint-selector="rect" id="v-1188" fill="#ffffff" rx="3" ry="3"  width="0" height="0" transform="matrix(1,0,0,1,0,0)" display="none"></rect><text joint-selector="text" id="v-1187" fill="#000000" font-size="14" text-anchor="middle" pointer-events="none"></text></g></g><g  display="none" style="display: none;"></g><g  id="v-1193" display="none"><g  id="v-1181"><path  end="source" d="M 26 0 L 0 13 L 26 26 z"></path></g><g  id="v-1182"><path  end="target" d="M 26 0 L 0 13 L 26 26 z"></path></g></g><g  id="v-1192" display="none"><g  id="v-1180" transform="translate(3575.914933026174, 586.2452168189578) "><g  event="remove"><circle r="11"></circle><path transform="scale(.8) translate(-16, -16)" d="M24.778,21.419 19.276,15.917 24.777,10.415 21.949,7.585 16.447,13.087 10.945,7.585 8.117,10.415 13.618,15.917 8.116,21.419 10.946,24.248 16.447,18.746 21.948,24.248z"></path><title>Remove link.</title></g><g  event="link:options"><circle r="11" transform="translate(25)"></circle><path fill="white" transform="scale(.55) translate(29, -16)" d="M31.229,17.736c0.064-0.571,0.104-1.148,0.104-1.736s-0.04-1.166-0.104-1.737l-4.377-1.557c-0.218-0.716-0.504-1.401-0.851-2.05l1.993-4.192c-0.725-0.91-1.549-1.734-2.458-2.459l-4.193,1.994c-0.647-0.347-1.334-0.632-2.049-0.849l-1.558-4.378C17.165,0.708,16.588,0.667,16,0.667s-1.166,0.041-1.737,0.105L12.707,5.15c-0.716,0.217-1.401,0.502-2.05,0.849L6.464,4.005C5.554,4.73,4.73,5.554,4.005,6.464l1.994,4.192c-0.347,0.648-0.632,1.334-0.849,2.05l-4.378,1.557C0.708,14.834,0.667,15.412,0.667,16s0.041,1.165,0.105,1.736l4.378,1.558c0.217,0.715,0.502,1.401,0.849,2.049l-1.994,4.193c0.725,0.909,1.549,1.733,2.459,2.458l4.192-1.993c0.648,0.347,1.334,0.633,2.05,0.851l1.557,4.377c0.571,0.064,1.148,0.104,1.737,0.104c0.588,0,1.165-0.04,1.736-0.104l1.558-4.377c0.715-0.218,1.399-0.504,2.049-0.851l4.193,1.993c0.909-0.725,1.733-1.549,2.458-2.458l-1.993-4.193c0.347-0.647,0.633-1.334,0.851-2.049L31.229,17.736zM16,20.871c-2.69,0-4.872-2.182-4.872-4.871c0-2.69,2.182-4.872,4.872-4.872c2.689,0,4.871,2.182,4.871,4.872C20.871,18.689,18.689,20.871,16,20.871z"></path><title>Link options.</title></g></g></g></g><!--z-index:58--><g   id="j_90" ><path  stroke="#707070" d="M 4041 551 L 3880 851" id="v-1206" stroke-width="2" stroke-dasharray="30 30" fill="none" style="opacity: 1;"></path><path  fill="black" stroke="black" d="M 0 0 0 0" transform="matrix(-0.47410338017583303,0.8804691845293903,-0.8804691845293903,-0.47410338017583303,4041.31005859375,551)"></path><path  fill="#707070" stroke="#707070" d="M 20 0 L 0 10 L 20 20 z" id="v-1208" transform="matrix(0.4741034974173923,-0.8804691213986988,0.8804691213986988,0.4741034974173923,3870.965260139964,846.2589687398131)" style="opacity: 1;"></path><path  d="M 4041 551 L 3880 851" id="v-1207" fill="none" style="cursor: auto; pointer-events: visiblepainted;"></path><g ><g id="v-1200"  label-idx="0" cursor="move" transform="matrix(1,0,0,1,3960.5,701)" style="cursor: default; opacity: 1;"><rect joint-selector="rect" id="v-1203" fill="#ffffff" rx="3" ry="3" pointer-events="none" width="131.8125" height="57.299997329711914" transform="matrix(1,0,0,1,-65.9,-28.6)"></rect><text joint-selector="text" id="v-1202" font-size="24px" xml:space="preserve" y="0.8em" fill="#707070" text-anchor="middle" pointer-events="none" font-family="Open Sans" font-weight="normal" transform="matrix(1,0,0,1,0,-24.1)"><tspan dy="0" >Consulta</tspan><tspan dy="1.2em" x="0" >trazabilidad</tspan></text></g><g id="v-1201"  label-idx="1" cursor="move" transform="matrix(1,0,0,1,3950.5,741.7999877929688)" style="cursor: default; opacity: 1;"><rect joint-selector="rect" id="v-1205" fill="#ffffff" rx="3" ry="3"  width="0" height="0" transform="matrix(1,0,0,1,0,0)" display="none"></rect><text joint-selector="text" id="v-1204" fill="#000000" font-size="14" text-anchor="middle" pointer-events="none"></text></g></g><g  display="none" style="display: none;"></g><g  id="v-1210" display="none"><g  id="v-1198"><path  end="source" d="M 26 0 L 0 13 L 26 26 z"></path></g><g  id="v-1199"><path  end="target" d="M 26 0 L 0 13 L 26 26 z"></path></g></g><g  id="v-1209" display="none"><g  id="v-1197" transform="translate(4022.0850669738256, 586.2452168189578) "><g  event="remove"><circle r="11"></circle><path transform="scale(.8) translate(-16, -16)" d="M24.778,21.419 19.276,15.917 24.777,10.415 21.949,7.585 16.447,13.087 10.945,7.585 8.117,10.415 13.618,15.917 8.116,21.419 10.946,24.248 16.447,18.746 21.948,24.248z"></path><title>Remove link.</title></g><g  event="link:options"><circle r="11" transform="translate(25)"></circle><path fill="white" transform="scale(.55) translate(29, -16)" d="M31.229,17.736c0.064-0.571,0.104-1.148,0.104-1.736s-0.04-1.166-0.104-1.737l-4.377-1.557c-0.218-0.716-0.504-1.401-0.851-2.05l1.993-4.192c-0.725-0.91-1.549-1.734-2.458-2.459l-4.193,1.994c-0.647-0.347-1.334-0.632-2.049-0.849l-1.558-4.378C17.165,0.708,16.588,0.667,16,0.667s-1.166,0.041-1.737,0.105L12.707,5.15c-0.716,0.217-1.401,0.502-2.05,0.849L6.464,4.005C5.554,4.73,4.73,5.554,4.005,6.464l1.994,4.192c-0.347,0.648-0.632,1.334-0.849,2.05l-4.378,1.557C0.708,14.834,0.667,15.412,0.667,16s0.041,1.165,0.105,1.736l4.378,1.558c0.217,0.715,0.502,1.401,0.849,2.049l-1.994,4.193c0.725,0.909,1.549,1.733,2.459,2.458l4.192-1.993c0.648,0.347,1.334,0.633,2.05,0.851l1.557,4.377c0.571,0.064,1.148,0.104,1.737,0.104c0.588,0,1.165-0.04,1.736-0.104l1.558-4.377c0.715-0.218,1.399-0.504,2.049-0.851l4.193,1.993c0.909-0.725,1.733-1.549,2.458-2.458l-1.993-4.193c0.347-0.647,0.633-1.334,0.851-2.049L31.229,17.736zM16,20.871c-2.69,0-4.872-2.182-4.872-4.871c0-2.69,2.182-4.872,4.872-4.872c2.689,0,4.871,2.182,4.871,4.872C20.871,18.689,18.689,20.871,16,20.871z"></path><title>Link options.</title></g></g></g></g><!--z-index:59--><g   id="j_91" ><path  stroke="#707070" d="M 4649 475 L 4024 862" id="v-1223" stroke-width="2" stroke-dasharray="30 30" fill="none" style="opacity: 1;"></path><path  fill="black" stroke="black" d="M 0 0 0 0" transform="matrix(-0.8502679904177598,0.5263500208710401,-0.5263500208710401,-0.8502679904177598,4649,474.80999755859375)"></path><path  fill="#707070" stroke="#707070" d="M 20 0 L 0 10 L 20 20 z" id="v-1225" transform="matrix(0.8502681305932193,-0.5263497944309585,0.5263497944309585,0.8502681305932193,4018.7365062966333,853.2072888063461)" style="opacity: 1;"></path><path  d="M 4649 475 L 4024 862" id="v-1224" fill="none" style="cursor: auto; pointer-events: visiblepainted;"></path><g ><g id="v-1217"  label-idx="0" cursor="move" transform="matrix(1,0,0,1,4336.5,668.5)" style="cursor: default; opacity: 1;"><rect joint-selector="rect" id="v-1220" fill="#ffffff" rx="3" ry="3" pointer-events="none" width="122.015625" height="57.299997329711914" transform="matrix(1,0,0,1,-61,-28.6)"></rect><text joint-selector="text" id="v-1219" font-size="24px" xml:space="preserve" y="0.8em" fill="#707070" text-anchor="middle" pointer-events="none" font-family="Open Sans" font-weight="normal" transform="matrix(1,0,0,1,0,-24.1)"><tspan dy="0" >Administra</tspan><tspan dy="1.2em" x="0" >sistema</tspan></text></g><g id="v-1218"  label-idx="1" cursor="move" transform="matrix(1,0,0,1,4326.5,709.2999877929688)" style="cursor: default; opacity: 1;"><rect joint-selector="rect" id="v-1222" fill="#ffffff" rx="3" ry="3"  width="0" height="0" transform="matrix(1,0,0,1,0,0)" display="none"></rect><text joint-selector="text" id="v-1221" fill="#000000" font-size="14" text-anchor="middle" pointer-events="none"></text></g></g><g  display="none" style="display: none;"></g><g  id="v-1227" display="none"><g  id="v-1215"><path  end="source" d="M 26 0 L 0 13 L 26 26 z"></path></g><g  id="v-1216"><path  end="target" d="M 26 0 L 0 13 L 26 26 z"></path></g></g><g  id="v-1226" display="none"><g  id="v-1214" transform="translate(4614.991713592465, 496.0579309435452) "><g  event="remove"><circle r="11"></circle><path transform="scale(.8) translate(-16, -16)" d="M24.778,21.419 19.276,15.917 24.777,10.415 21.949,7.585 16.447,13.087 10.945,7.585 8.117,10.415 13.618,15.917 8.116,21.419 10.946,24.248 16.447,18.746 21.948,24.248z"></path><title>Remove link.</title></g><g  event="link:options"><circle r="11" transform="translate(25)"></circle><path fill="white" transform="scale(.55) translate(29, -16)" d="M31.229,17.736c0.064-0.571,0.104-1.148,0.104-1.736s-0.04-1.166-0.104-1.737l-4.377-1.557c-0.218-0.716-0.504-1.401-0.851-2.05l1.993-4.192c-0.725-0.91-1.549-1.734-2.458-2.459l-4.193,1.994c-0.647-0.347-1.334-0.632-2.049-0.849l-1.558-4.378C17.165,0.708,16.588,0.667,16,0.667s-1.166,0.041-1.737,0.105L12.707,5.15c-0.716,0.217-1.401,0.502-2.05,0.849L6.464,4.005C5.554,4.73,4.73,5.554,4.005,6.464l1.994,4.192c-0.347,0.648-0.632,1.334-0.849,2.05l-4.378,1.557C0.708,14.834,0.667,15.412,0.667,16s0.041,1.165,0.105,1.736l4.378,1.558c0.217,0.715,0.502,1.401,0.849,2.049l-1.994,4.193c0.725,0.909,1.549,1.733,2.459,2.458l4.192-1.993c0.648,0.347,1.334,0.633,2.05,0.851l1.557,4.377c0.571,0.064,1.148,0.104,1.737,0.104c0.588,0,1.165-0.04,1.736-0.104l1.558-4.377c0.715-0.218,1.399-0.504,2.049-0.851l4.193,1.993c0.909-0.725,1.733-1.549,2.458-2.458l-1.993-4.193c0.347-0.647,0.633-1.334,0.851-2.049L31.229,17.736zM16,20.871c-2.69,0-4.872-2.182-4.872-4.871c0-2.69,2.182-4.872,4.872-4.872c2.689,0,4.871,2.182,4.871,4.872C20.871,18.689,18.689,20.871,16,20.871z"></path><title>Link options.</title></g></g></g></g><!--z-index:60--><g   id="j_92" ><path  stroke="#707070" d="M 5349 465 L 5208 546 C 5202 549.3333333333333 5195.666666666666 552 5189 554 L 4024 929" id="v-1241" stroke-width="2" stroke-dasharray="30 30" fill="none" style="opacity: 1;"></path><path  fill="black" stroke="black" d="M 0 0 0 0" transform="matrix(-0.8682537837475194,0.4961203150528265,-0.4961203150528265,-0.8682537837475194,5349,465.2900085449219)"></path><path  fill="#707070" stroke="#707070" d="M 20 0 L 0 10 L 20 20 z" id="v-1243" transform="matrix(0.9520282926688299,-0.30601001610743517,0.30601001610743517,0.9520282926688299,4020.9398805841124,919.1596902812611)" style="opacity: 1;"></path><path  d="M 5349 465 L 5208 546 C 5202 549.3333333333333 5195.666666666666 552 5189 554 L 4024 929" id="v-1242" fill="none" style="cursor: auto; pointer-events: visiblepainted;"></path><g ><g id="v-1235"  label-idx="0" cursor="move" transform="matrix(1,0,0,1,4693.72412109375,713.4235229492188)" style="cursor: default; opacity: 1;"><rect joint-selector="rect" id="v-1238" fill="#ffffff" rx="3" ry="3" pointer-events="none" width="184.13671875" height="29.489195823669434" transform="matrix(1,0,0,1,-92.1,-14.7)"></rect><text joint-selector="text" id="v-1237" font-size="24px" xml:space="preserve" y="0.8em" fill="#707070" text-anchor="middle" pointer-events="none" font-family="Open Sans" font-weight="normal" transform="matrix(1,0,0,1,0,-10.2)"><tspan dy="0" >Genera reportes</tspan></text></g><g id="v-1236"  label-idx="1" cursor="move" transform="matrix(1,0,0,1,4683.72412109375,739.8235473632812)" style="cursor: default; opacity: 1;"><rect joint-selector="rect" id="v-1240" fill="#ffffff" rx="3" ry="3"  width="0" height="0" transform="matrix(1,0,0,1,0,0)" display="none"></rect><text joint-selector="text" id="v-1239" fill="#000000" font-size="14" text-anchor="middle" pointer-events="none"></text></g></g><g  display="none" style="display: none;"><g  transform="translate(5199, 551)" id="v-1470"><circle  idx="0" r="10"></circle><path  idx="0" d="M16,5.333c-7.732,0-14,4.701-14,10.5c0,1.982,0.741,3.833,2.016,5.414L2,25.667l5.613-1.441c2.339,1.317,5.237,2.107,8.387,2.107c7.732,0,14-4.701,14-10.5C30,10.034,23.732,5.333,16,5.333z" transform="translate(5, -33)"></path><path  idx="0" transform="scale(.8) translate(9.5, -37)" d="M24.778,21.419 19.276,15.917 24.777,10.415 21.949,7.585 16.447,13.087 10.945,7.585 8.117,10.415 13.618,15.917 8.116,21.419 10.946,24.248 16.447,18.746 21.948,24.248z"><title>Remove vertex.</title></path></g></g><g  id="v-1245" display="none"><g  id="v-1233"><path  end="source" d="M 26 0 L 0 13 L 26 26 z"></path></g><g  id="v-1234"><path  end="target" d="M 26 0 L 0 13 L 26 26 z"></path></g></g><g  id="v-1244" display="none"><g  id="v-1231" transform="translate(5314.315778301169, 484.9249784227325) "><g  event="remove"><circle r="11"></circle><path transform="scale(.8) translate(-16, -16)" d="M24.778,21.419 19.276,15.917 24.777,10.415 21.949,7.585 16.447,13.087 10.945,7.585 8.117,10.415 13.618,15.917 8.116,21.419 10.946,24.248 16.447,18.746 21.948,24.248z"></path><title>Remove link.</title></g><g  event="link:options"><circle r="11" transform="translate(25)"></circle><path fill="white" transform="scale(.55) translate(29, -16)" d="M31.229,17.736c0.064-0.571,0.104-1.148,0.104-1.736s-0.04-1.166-0.104-1.737l-4.377-1.557c-0.218-0.716-0.504-1.401-0.851-2.05l1.993-4.192c-0.725-0.91-1.549-1.734-2.458-2.459l-4.193,1.994c-0.647-0.347-1.334-0.632-2.049-0.849l-1.558-4.378C17.165,0.708,16.588,0.667,16,0.667s-1.166,0.041-1.737,0.105L12.707,5.15c-0.716,0.217-1.401,0.502-2.05,0.849L6.464,4.005C5.554,4.73,4.73,5.554,4.005,6.464l1.994,4.192c-0.347,0.648-0.632,1.334-0.849,2.05l-4.378,1.557C0.708,14.834,0.667,15.412,0.667,16s0.041,1.165,0.105,1.736l4.378,1.558c0.217,0.715,0.502,1.401,0.849,2.049l-1.994,4.193c0.725,0.909,1.549,1.733,2.459,2.458l4.192-1.993c0.648,0.347,1.334,0.633,2.05,0.851l1.557,4.377c0.571,0.064,1.148,0.104,1.737,0.104c0.588,0,1.165-0.04,1.736-0.104l1.558-4.377c0.715-0.218,1.399-0.504,2.049-0.851l4.193,1.993c0.909-0.725,1.733-1.549,2.458-2.458l-1.993-4.193c0.347-0.647,0.633-1.334,0.851-2.049L31.229,17.736zM16,20.871c-2.69,0-4.872-2.182-4.872-4.871c0-2.69,2.182-4.872,4.872-4.872c2.689,0,4.871,2.182,4.871,4.872C20.871,18.689,18.689,20.871,16,20.871z"></path><title>Link options.</title></g></g></g></g><!--z-index:61--><g   id="j_93" ><path  stroke="#707070" d="M 4024 1069 L 5289 1448 C 5295.666666666666 1450 5302 1452.3333333333333 5308 1455 L 5449 1511" id="v-1262" stroke-width="2" stroke-dasharray="30 30" fill="none" style="opacity: 1;"></path><path  fill="black" stroke="black" d="M 0 0 0 0" transform="matrix(0.9578262886739,0.28734787405718315,-0.28734787405718315,0.9578262886739,4024,1068.5)"></path><path  fill="#707070" stroke="#707070" d="M 20 0 L 0 10 L 20 20 z" id="v-1264" transform="matrix(-0.928476707906966,-0.3713906337998342,0.3713906337998342,-0.928476707906966,5445.286192772322,1520.284806229568)" style="opacity: 1;"></path><path  d="M 4024 1069 L 5289 1448 C 5295.666666666666 1450 5302 1452.3333333333333 5308 1455 L 5449 1511" id="v-1263" fill="none" style="cursor: auto; pointer-events: visiblepainted;"></path><g ><g id="v-1253"  label-idx="0" cursor="move" transform="matrix(1,0,0,1,4738.8701171875,1283.178466796875)" style="cursor: default; opacity: 1;"><rect joint-selector="rect" id="v-1257" fill="#ffffff" rx="3" ry="3" pointer-events="none" width="170.8515625" height="29.489195823669434" transform="matrix(1,0,0,1,-85.4,-14.7)"></rect><text joint-selector="text" id="v-1256" font-size="24px" xml:space="preserve" y="0.8em" fill="#707070" text-anchor="middle" pointer-events="none" font-family="Open Sans" font-weight="normal" transform="matrix(1,0,0,1,0,-10.2)"><tspan dy="0" >Obtiene mapas</tspan></text></g><g id="v-1254"  label-idx="1" cursor="move" transform="matrix(1,0,0,1,4738.8701171875,1309.578369140625)" style="cursor: default; opacity: 1;"><rect joint-selector="rect" id="v-1259" fill="#ffffff" rx="3" ry="3" pointer-events="none" width="79.7109375" height="23.75" transform="matrix(1,0,0,1,-39.9,-11.9)"></rect><text joint-selector="text" id="v-1258" font-size="17px" xml:space="preserve" y="0.8em" fill="#707070" text-anchor="middle" pointer-events="none" font-family="Open Sans" font-weight="normal" transform="matrix(1,0,0,1,0,-6.5)"><tspan dy="0" >[REST API]</tspan></text></g><g id="v-1255"  label-idx="2" cursor="move" transform="matrix(1,0,0,1,4728.8701171875,1317.9783935546875)" style="cursor: default; opacity: 1;"><rect joint-selector="rect" id="v-1261" fill="#ffffff" rx="3" ry="3"  width="0" height="0" transform="matrix(1,0,0,1,0,0)" display="none"></rect><text joint-selector="text" id="v-1260" fill="#000000" font-size="14" text-anchor="middle" pointer-events="none"></text></g></g><g  display="none" style="display: none;"><g  transform="translate(5299, 1451)" id="v-1471"><circle  idx="0" r="10"></circle><path  idx="0" d="M16,5.333c-7.732,0-14,4.701-14,10.5c0,1.982,0.741,3.833,2.016,5.414L2,25.667l5.613-1.441c2.339,1.317,5.237,2.107,8.387,2.107c7.732,0,14-4.701,14-10.5C30,10.034,23.732,5.333,16,5.333z" transform="translate(5, -33)"></path><path  idx="0" transform="scale(.8) translate(9.5, -37)" d="M24.778,21.419 19.276,15.917 24.777,10.415 21.949,7.585 16.447,13.087 10.945,7.585 8.117,10.415 13.618,15.917 8.116,21.419 10.946,24.248 16.447,18.746 21.948,24.248z"><title>Remove vertex.</title></path></g></g><g  id="v-1266" display="none"><g  id="v-1251"><path  end="source" d="M 26 0 L 0 13 L 26 26 z"></path></g><g  id="v-1252"><path  end="target" d="M 26 0 L 0 13 L 26 26 z"></path></g></g><g  id="v-1265" display="none"><g  id="v-1249" transform="translate(4062.3172172779086, 1080.4800200382033) "><g  event="remove"><circle r="11"></circle><path transform="scale(.8) translate(-16, -16)" d="M24.778,21.419 19.276,15.917 24.777,10.415 21.949,7.585 16.447,13.087 10.945,7.585 8.117,10.415 13.618,15.917 8.116,21.419 10.946,24.248 16.447,18.746 21.948,24.248z"></path><title>Remove link.</title></g><g  event="link:options"><circle r="11" transform="translate(25)"></circle><path fill="white" transform="scale(.55) translate(29, -16)" d="M31.229,17.736c0.064-0.571,0.104-1.148,0.104-1.736s-0.04-1.166-0.104-1.737l-4.377-1.557c-0.218-0.716-0.504-1.401-0.851-2.05l1.993-4.192c-0.725-0.91-1.549-1.734-2.458-2.459l-4.193,1.994c-0.647-0.347-1.334-0.632-2.049-0.849l-1.558-4.378C17.165,0.708,16.588,0.667,16,0.667s-1.166,0.041-1.737,0.105L12.707,5.15c-0.716,0.217-1.401,0.502-2.05,0.849L6.464,4.005C5.554,4.73,4.73,5.554,4.005,6.464l1.994,4.192c-0.347,0.648-0.632,1.334-0.849,2.05l-4.378,1.557C0.708,14.834,0.667,15.412,0.667,16s0.041,1.165,0.105,1.736l4.378,1.558c0.217,0.715,0.502,1.401,0.849,2.049l-1.994,4.193c0.725,0.909,1.549,1.733,2.459,2.458l4.192-1.993c0.648,0.347,1.334,0.633,2.05,0.851l1.557,4.377c0.571,0.064,1.148,0.104,1.737,0.104c0.588,0,1.165-0.04,1.736-0.104l1.558-4.377c0.715-0.218,1.399-0.504,2.049-0.851l4.193,1.993c0.909-0.725,1.733-1.549,2.458-2.458l-1.993-4.193c0.347-0.647,0.633-1.334,0.851-2.049L31.229,17.736zM16,20.871c-2.69,0-4.872-2.182-4.872-4.871c0-2.69,2.182-4.872,4.872-4.872c2.689,0,4.871,2.182,4.871,4.872C20.871,18.689,18.689,20.871,16,20.871z"></path><title>Link options.</title></g></g></g></g><!--z-index:62--><g   id="j_94" ><path  stroke="#707070" d="M 4024 1046 L 6039 1449 C 6045.666666666666 1450.3333333333333 6052 1452.3333333333333 6058 1455 L 6199 1511" id="v-1283" stroke-width="2" stroke-dasharray="30 30" fill="none" style="opacity: 1;"></path><path  fill="black" stroke="black" d="M 0 0 0 0" transform="matrix(0.9805806748875034,0.1961161391552673,-0.1961161391552673,0.9805806748875034,4024,1046)"></path><path  fill="#707070" stroke="#707070" d="M 20 0 L 0 10 L 20 20 z" id="v-1285" transform="matrix(-0.928476707906966,-0.3713906337998342,0.3713906337998342,-0.928476707906966,6195.286192772322,1520.284806229568)" style="opacity: 1;"></path><path  d="M 4024 1046 L 6039 1449 C 6045.666666666666 1450.3333333333333 6052 1452.3333333333333 6058 1455 L 6199 1511" id="v-1284" fill="none" style="cursor: auto; pointer-events: visiblepainted;"></path><g ><g id="v-1274"  label-idx="0" cursor="move" transform="matrix(1,0,0,1,5115.67138671875,1264.334228515625)" style="cursor: default; opacity: 1;"><rect joint-selector="rect" id="v-1278" fill="#ffffff" rx="3" ry="3" pointer-events="none" width="157.71484375" height="57.299997329711914" transform="matrix(1,0,0,1,-78.9,-28.6)"></rect><text joint-selector="text" id="v-1277" font-size="24px" xml:space="preserve" y="0.8em" fill="#707070" text-anchor="middle" pointer-events="none" font-family="Open Sans" font-weight="normal" transform="matrix(1,0,0,1,0,-24.1)"><tspan dy="0" >Mapas en app</tspan><tspan dy="1.2em" x="0" >móvil</tspan></text></g><g id="v-1275"  label-idx="1" cursor="move" transform="matrix(1,0,0,1,5115.67138671875,1305.13427734375)" style="cursor: default; opacity: 1;"><rect joint-selector="rect" id="v-1280" fill="#ffffff" rx="3" ry="3" pointer-events="none" width="43.12109375" height="23.75" transform="matrix(1,0,0,1,-21.6,-11.9)"></rect><text joint-selector="text" id="v-1279" font-size="17px" xml:space="preserve" y="0.8em" fill="#707070" text-anchor="middle" pointer-events="none" font-family="Open Sans" font-weight="normal" transform="matrix(1,0,0,1,0,-6.5)"><tspan dy="0" >[SDK]</tspan></text></g><g id="v-1276"  label-idx="2" cursor="move" transform="matrix(1,0,0,1,5105.67138671875,1313.5343017578125)" style="cursor: default; opacity: 1;"><rect joint-selector="rect" id="v-1282" fill="#ffffff" rx="3" ry="3"  width="0" height="0" transform="matrix(1,0,0,1,0,0)" display="none"></rect><text joint-selector="text" id="v-1281" fill="#000000" font-size="14" text-anchor="middle" pointer-events="none"></text></g></g><g  display="none" style="display: none;"><g  transform="translate(6049, 1451)" id="v-1472"><circle  idx="0" r="10"></circle><path  idx="0" d="M16,5.333c-7.732,0-14,4.701-14,10.5c0,1.982,0.741,3.833,2.016,5.414L2,25.667l5.613-1.441c2.339,1.317,5.237,2.107,8.387,2.107c7.732,0,14-4.701,14-10.5C30,10.034,23.732,5.333,16,5.333z" transform="translate(5, -33)"></path><path  idx="0" transform="scale(.8) translate(9.5, -37)" d="M24.778,21.419 19.276,15.917 24.777,10.415 21.949,7.585 16.447,13.087 10.945,7.585 8.117,10.415 13.618,15.917 8.116,21.419 10.946,24.248 16.447,18.746 21.948,24.248z"><title>Remove vertex.</title></path></g></g><g  id="v-1287" display="none"><g  id="v-1272"><path  end="source" d="M 26 0 L 0 13 L 26 26 z"></path></g><g  id="v-1273"><path  end="target" d="M 26 0 L 0 13 L 26 26 z"></path></g></g><g  id="v-1286" display="none"><g  id="v-1270" transform="translate(4063.2232270276368, 1053.8446454055274) "><g  event="remove"><circle r="11"></circle><path transform="scale(.8) translate(-16, -16)" d="M24.778,21.419 19.276,15.917 24.777,10.415 21.949,7.585 16.447,13.087 10.945,7.585 8.117,10.415 13.618,15.917 8.116,21.419 10.946,24.248 16.447,18.746 21.948,24.248z"></path><title>Remove link.</title></g><g  event="link:options"><circle r="11" transform="translate(25)"></circle><path fill="white" transform="scale(.55) translate(29, -16)" d="M31.229,17.736c0.064-0.571,0.104-1.148,0.104-1.736s-0.04-1.166-0.104-1.737l-4.377-1.557c-0.218-0.716-0.504-1.401-0.851-2.05l1.993-4.192c-0.725-0.91-1.549-1.734-2.458-2.459l-4.193,1.994c-0.647-0.347-1.334-0.632-2.049-0.849l-1.558-4.378C17.165,0.708,16.588,0.667,16,0.667s-1.166,0.041-1.737,0.105L12.707,5.15c-0.716,0.217-1.401,0.502-2.05,0.849L6.464,4.005C5.554,4.73,4.73,5.554,4.005,6.464l1.994,4.192c-0.347,0.648-0.632,1.334-0.849,2.05l-4.378,1.557C0.708,14.834,0.667,15.412,0.667,16s0.041,1.165,0.105,1.736l4.378,1.558c0.217,0.715,0.502,1.401,0.849,2.049l-1.994,4.193c0.725,0.909,1.549,1.733,2.459,2.458l4.192-1.993c0.648,0.347,1.334,0.633,2.05,0.851l1.557,4.377c0.571,0.064,1.148,0.104,1.737,0.104c0.588,0,1.165-0.04,1.736-0.104l1.558-4.377c0.715-0.218,1.399-0.504,2.049-0.851l4.193,1.993c0.909-0.725,1.733-1.549,2.458-2.458l-1.993-4.193c0.347-0.647,0.633-1.334,0.851-2.049L31.229,17.736zM16,20.871c-2.69,0-4.872-2.182-4.872-4.871c0-2.69,2.182-4.872,4.872-4.872c2.689,0,4.871,2.182,4.871,4.872C20.871,18.689,18.689,20.871,16,20.871z"></path><title>Link options.</title></g></g></g></g><!--z-index:63--><g   id="j_95" ><path  stroke="#707070" d="M 4024 1035 L 6789 1450 C 6795.666666666666 1450.6666666666665 6801.999999999999 1452.3333333333333 6808 1455 L 6949 1511" id="v-1304" stroke-width="2" stroke-dasharray="30 30" fill="none" style="opacity: 1;"></path><path  fill="black" stroke="black" d="M 0 0 0 0" transform="matrix(0.9889363530663605,0.1483404516098247,-0.1483404516098247,0.9889363530663605,4024,1034.75)"></path><path  fill="#707070" stroke="#707070" d="M 20 0 L 0 10 L 20 20 z" id="v-1306" transform="matrix(-0.928476707906966,-0.3713906337998342,0.3713906337998342,-0.928476707906966,6945.286192772322,1520.284806229568)" style="opacity: 1;"></path><path  d="M 4024 1035 L 6789 1450 C 6795.666666666666 1450.6666666666665 6801.999999999999 1452.3333333333333 6808 1455 L 6949 1511" id="v-1305" fill="none" style="cursor: auto; pointer-events: visiblepainted;"></path><g ><g id="v-1295"  label-idx="0" cursor="move" transform="matrix(1,0,0,1,5491.27001953125,1255.22314453125)" style="cursor: default; opacity: 1;"><rect joint-selector="rect" id="v-1299" fill="#ffffff" rx="3" ry="3" pointer-events="none" width="126.3203125" height="57.299997329711914" transform="matrix(1,0,0,1,-63.2,-28.6)"></rect><text joint-selector="text" id="v-1298" font-size="24px" xml:space="preserve" y="0.8em" fill="#707070" text-anchor="middle" pointer-events="none" font-family="Open Sans" font-weight="normal" transform="matrix(1,0,0,1,0,-24.1)"><tspan dy="0" >Integración</tspan><tspan dy="1.2em" x="0" >comercial</tspan></text></g><g id="v-1296"  label-idx="1" cursor="move" transform="matrix(1,0,0,1,5491.27001953125,1296.023193359375)" style="cursor: default; opacity: 1;"><rect joint-selector="rect" id="v-1301" fill="#ffffff" rx="3" ry="3" pointer-events="none" width="93.73828125" height="23.75" transform="matrix(1,0,0,1,-46.9,-11.9)"></rect><text joint-selector="text" id="v-1300" font-size="17px" xml:space="preserve" y="0.8em" fill="#707070" text-anchor="middle" pointer-events="none" font-family="Open Sans" font-weight="normal" transform="matrix(1,0,0,1,0,-6.5)"><tspan dy="0" >[OAuth/API]</tspan></text></g><g id="v-1297"  label-idx="2" cursor="move" transform="matrix(1,0,0,1,5481.27001953125,1304.4232177734375)" style="cursor: default; opacity: 1;"><rect joint-selector="rect" id="v-1303" fill="#ffffff" rx="3" ry="3"  width="0" height="0" transform="matrix(1,0,0,1,0,0)" display="none"></rect><text joint-selector="text" id="v-1302" fill="#000000" font-size="14" text-anchor="middle" pointer-events="none"></text></g></g><g  display="none" style="display: none;"><g  transform="translate(6799, 1451)" id="v-1473"><circle  idx="0" r="10"></circle><path  idx="0" d="M16,5.333c-7.732,0-14,4.701-14,10.5c0,1.982,0.741,3.833,2.016,5.414L2,25.667l5.613-1.441c2.339,1.317,5.237,2.107,8.387,2.107c7.732,0,14-4.701,14-10.5C30,10.034,23.732,5.333,16,5.333z" transform="translate(5, -33)"></path><path  idx="0" transform="scale(.8) translate(9.5, -37)" d="M24.778,21.419 19.276,15.917 24.777,10.415 21.949,7.585 16.447,13.087 10.945,7.585 8.117,10.415 13.618,15.917 8.116,21.419 10.946,24.248 16.447,18.746 21.948,24.248z"><title>Remove vertex.</title></path></g></g><g  id="v-1308" display="none"><g  id="v-1293"><path  end="source" d="M 26 0 L 0 13 L 26 26 z"></path></g><g  id="v-1294"><path  end="target" d="M 26 0 L 0 13 L 26 26 z"></path></g></g><g  id="v-1307" display="none"><g  id="v-1291" transform="translate(4063.556929279023, 1040.9371159677376) "><g  event="remove"><circle r="11"></circle><path transform="scale(.8) translate(-16, -16)" d="M24.778,21.419 19.276,15.917 24.777,10.415 21.949,7.585 16.447,13.087 10.945,7.585 8.117,10.415 13.618,15.917 8.116,21.419 10.946,24.248 16.447,18.746 21.948,24.248z"></path><title>Remove link.</title></g><g  event="link:options"><circle r="11" transform="translate(25)"></circle><path fill="white" transform="scale(.55) translate(29, -16)" d="M31.229,17.736c0.064-0.571,0.104-1.148,0.104-1.736s-0.04-1.166-0.104-1.737l-4.377-1.557c-0.218-0.716-0.504-1.401-0.851-2.05l1.993-4.192c-0.725-0.91-1.549-1.734-2.458-2.459l-4.193,1.994c-0.647-0.347-1.334-0.632-2.049-0.849l-1.558-4.378C17.165,0.708,16.588,0.667,16,0.667s-1.166,0.041-1.737,0.105L12.707,5.15c-0.716,0.217-1.401,0.502-2.05,0.849L6.464,4.005C5.554,4.73,4.73,5.554,4.005,6.464l1.994,4.192c-0.347,0.648-0.632,1.334-0.849,2.05l-4.378,1.557C0.708,14.834,0.667,15.412,0.667,16s0.041,1.165,0.105,1.736l4.378,1.558c0.217,0.715,0.502,1.401,0.849,2.049l-1.994,4.193c0.725,0.909,1.549,1.733,2.459,2.458l4.192-1.993c0.648,0.347,1.334,0.633,2.05,0.851l1.557,4.377c0.571,0.064,1.148,0.104,1.737,0.104c0.588,0,1.165-0.04,1.736-0.104l1.558-4.377c0.715-0.218,1.399-0.504,2.049-0.851l4.193,1.993c0.909-0.725,1.733-1.549,2.458-2.458l-1.993-4.193c0.347-0.647,0.633-1.334,0.851-2.049L31.229,17.736zM16,20.871c-2.69,0-4.872-2.182-4.872-4.871c0-2.69,2.182-4.872,4.872-4.872c2.689,0,4.871,2.182,4.871,4.872C20.871,18.689,18.689,20.871,16,20.871z"></path><title>Link options.</title></g></g></g></g><!--z-index:64--><g   id="j_96" ><path  stroke="#707070" d="M 3574 1035 L 809 1450 C 802.3333333333333 1450.6666666666665 796 1452.3333333333333 790 1455 L 649 1511" id="v-1325" stroke-width="2" stroke-dasharray="30 30" fill="none" style="opacity: 1;"></path><path  fill="black" stroke="black" d="M 0 0 0 0" transform="matrix(-0.9889363629427212,0.14834038576740413,-0.14834038576740413,-0.9889363629427212,3574,1034.75)"></path><path  fill="#707070" stroke="#707070" d="M 20 0 L 0 10 L 20 20 z" id="v-1327" transform="matrix(0.9284766089996245,-0.3713908810681253,0.3713908810681253,0.9284766089996245,645.286115138385,1501.715275533185)" style="opacity: 1;"></path><path  d="M 3574 1035 L 809 1450 C 802.3333333333333 1450.6666666666665 796 1452.3333333333333 790 1455 L 649 1511" id="v-1326" fill="none" style="cursor: auto; pointer-events: visiblepainted;"></path><g ><g id="v-1316"  label-idx="0" cursor="move" transform="matrix(1,0,0,1,2106.729736328125,1255.22314453125)" style="cursor: default; opacity: 1;"><rect joint-selector="rect" id="v-1320" fill="#ffffff" rx="3" ry="3" pointer-events="none" width="126.171875" height="57.299997329711914" transform="matrix(1,0,0,1,-63.1,-28.6)"></rect><text joint-selector="text" id="v-1319" font-size="24px" xml:space="preserve" y="0.8em" fill="#707070" text-anchor="middle" pointer-events="none" font-family="Open Sans" font-weight="normal" transform="matrix(1,0,0,1,0,-24.1)"><tspan dy="0" >Conversión</tspan><tspan dy="1.2em" x="0" >monedas</tspan></text></g><g id="v-1317"  label-idx="1" cursor="move" transform="matrix(1,0,0,1,2106.729736328125,1296.023193359375)" style="cursor: default; opacity: 1;"><rect joint-selector="rect" id="v-1322" fill="#ffffff" rx="3" ry="3" pointer-events="none" width="79.7109375" height="23.75" transform="matrix(1,0,0,1,-39.9,-11.9)"></rect><text joint-selector="text" id="v-1321" font-size="17px" xml:space="preserve" y="0.8em" fill="#707070" text-anchor="middle" pointer-events="none" font-family="Open Sans" font-weight="normal" transform="matrix(1,0,0,1,0,-6.5)"><tspan dy="0" >[REST API]</tspan></text></g><g id="v-1318"  label-idx="2" cursor="move" transform="matrix(1,0,0,1,2096.729736328125,1304.4232177734375)" style="cursor: default; opacity: 1;"><rect joint-selector="rect" id="v-1324" fill="#ffffff" rx="3" ry="3"  width="0" height="0" transform="matrix(1,0,0,1,0,0)" display="none"></rect><text joint-selector="text" id="v-1323" fill="#000000" font-size="14" text-anchor="middle" pointer-events="none"></text></g></g><g  display="none" style="display: none;"><g  transform="translate(799, 1451)" id="v-1474"><circle  idx="0" r="10"></circle><path  idx="0" d="M16,5.333c-7.732,0-14,4.701-14,10.5c0,1.982,0.741,3.833,2.016,5.414L2,25.667l5.613-1.441c2.339,1.317,5.237,2.107,8.387,2.107c7.732,0,14-4.701,14-10.5C30,10.034,23.732,5.333,16,5.333z" transform="translate(5, -33)"></path><path  idx="0" transform="scale(.8) translate(9.5, -37)" d="M24.778,21.419 19.276,15.917 24.777,10.415 21.949,7.585 16.447,13.087 10.945,7.585 8.117,10.415 13.618,15.917 8.116,21.419 10.946,24.248 16.447,18.746 21.948,24.248z"><title>Remove vertex.</title></path></g></g><g  id="v-1329" display="none"><g  id="v-1314"><path  end="source" d="M 26 0 L 0 13 L 26 26 z"></path></g><g  id="v-1315"><path  end="target" d="M 26 0 L 0 13 L 26 26 z"></path></g></g><g  id="v-1328" display="none"><g  id="v-1312" transform="translate(3534.443070720977, 1040.9371159677376) "><g  event="remove"><circle r="11"></circle><path transform="scale(.8) translate(-16, -16)" d="M24.778,21.419 19.276,15.917 24.777,10.415 21.949,7.585 16.447,13.087 10.945,7.585 8.117,10.415 13.618,15.917 8.116,21.419 10.946,24.248 16.447,18.746 21.948,24.248z"></path><title>Remove link.</title></g><g  event="link:options"><circle r="11" transform="translate(25)"></circle><path fill="white" transform="scale(.55) translate(29, -16)" d="M31.229,17.736c0.064-0.571,0.104-1.148,0.104-1.736s-0.04-1.166-0.104-1.737l-4.377-1.557c-0.218-0.716-0.504-1.401-0.851-2.05l1.993-4.192c-0.725-0.91-1.549-1.734-2.458-2.459l-4.193,1.994c-0.647-0.347-1.334-0.632-2.049-0.849l-1.558-4.378C17.165,0.708,16.588,0.667,16,0.667s-1.166,0.041-1.737,0.105L12.707,5.15c-0.716,0.217-1.401,0.502-2.05,0.849L6.464,4.005C5.554,4.73,4.73,5.554,4.005,6.464l1.994,4.192c-0.347,0.648-0.632,1.334-0.849,2.05l-4.378,1.557C0.708,14.834,0.667,15.412,0.667,16s0.041,1.165,0.105,1.736l4.378,1.558c0.217,0.715,0.502,1.401,0.849,2.049l-1.994,4.193c0.725,0.909,1.549,1.733,2.459,2.458l4.192-1.993c0.648,0.347,1.334,0.633,2.05,0.851l1.557,4.377c0.571,0.064,1.148,0.104,1.737,0.104c0.588,0,1.165-0.04,1.736-0.104l1.558-4.377c0.715-0.218,1.399-0.504,2.049-0.851l4.193,1.993c0.909-0.725,1.733-1.549,2.458-2.458l-1.993-4.193c0.347-0.647,0.633-1.334,0.851-2.049L31.229,17.736zM16,20.871c-2.69,0-4.872-2.182-4.872-4.871c0-2.69,2.182-4.872,4.872-4.872c2.689,0,4.871,2.182,4.871,4.872C20.871,18.689,18.689,20.871,16,20.871z"></path><title>Link options.</title></g></g></g></g><!--z-index:65--><g   id="j_97" ><path  stroke="#707070" d="M 3574 1046 L 1559 1449 C 1552.333333333333 1450.3333333333333 1545.9999999999998 1452.3333333333333 1540 1455 L 1399 1511" id="v-1346" stroke-width="2" stroke-dasharray="30 30" fill="none" style="opacity: 1;"></path><path  fill="black" stroke="black" d="M 0 0 0 0" transform="matrix(-0.9805806618302795,0.19611620444137456,-0.19611620444137456,-0.9805806618302795,3574,1046)"></path><path  fill="#707070" stroke="#707070" d="M 20 0 L 0 10 L 20 20 z" id="v-1348" transform="matrix(0.9284766089996245,-0.3713908810681253,0.3713908810681253,0.9284766089996245,1395.286115138385,1501.715275533185)" style="opacity: 1;"></path><path  d="M 3574 1046 L 1559 1449 C 1552.333333333333 1450.3333333333333 1545.9999999999998 1452.3333333333333 1540 1455 L 1399 1511" id="v-1347" fill="none" style="cursor: auto; pointer-events: visiblepainted;"></path><g ><g id="v-1337"  label-idx="0" cursor="move" transform="matrix(1,0,0,1,2482.32861328125,1264.334228515625)" style="cursor: default; opacity: 1;"><rect joint-selector="rect" id="v-1341" fill="#ffffff" rx="3" ry="3" pointer-events="none" width="154.30078125" height="57.299997329711914" transform="matrix(1,0,0,1,-77.2,-28.6)"></rect><text joint-selector="text" id="v-1340" font-size="24px" xml:space="preserve" y="0.8em" fill="#707070" text-anchor="middle" pointer-events="none" font-family="Open Sans" font-weight="normal" transform="matrix(1,0,0,1,0,-24.1)"><tspan dy="0" >Envía</tspan><tspan dy="1.2em" x="0" >notificaciones</tspan></text></g><g id="v-1338"  label-idx="1" cursor="move" transform="matrix(1,0,0,1,2482.32861328125,1305.13427734375)" style="cursor: default; opacity: 1;"><rect joint-selector="rect" id="v-1343" fill="#ffffff" rx="3" ry="3" pointer-events="none" width="55.21875" height="23.75" transform="matrix(1,0,0,1,-27.6,-11.9)"></rect><text joint-selector="text" id="v-1342" font-size="17px" xml:space="preserve" y="0.8em" fill="#707070" text-anchor="middle" pointer-events="none" font-family="Open Sans" font-weight="normal" transform="matrix(1,0,0,1,0,-6.5)"><tspan dy="0" >[SMTP]</tspan></text></g><g id="v-1339"  label-idx="2" cursor="move" transform="matrix(1,0,0,1,2472.32861328125,1313.5343017578125)" style="cursor: default; opacity: 1;"><rect joint-selector="rect" id="v-1345" fill="#ffffff" rx="3" ry="3"  width="0" height="0" transform="matrix(1,0,0,1,0,0)" display="none"></rect><text joint-selector="text" id="v-1344" fill="#000000" font-size="14" text-anchor="middle" pointer-events="none"></text></g></g><g  display="none" style="display: none;"><g  transform="translate(1549, 1451)" id="v-1475"><circle  idx="0" r="10"></circle><path  idx="0" d="M16,5.333c-7.732,0-14,4.701-14,10.5c0,1.982,0.741,3.833,2.016,5.414L2,25.667l5.613-1.441c2.339,1.317,5.237,2.107,8.387,2.107c7.732,0,14-4.701,14-10.5C30,10.034,23.732,5.333,16,5.333z" transform="translate(5, -33)"></path><path  idx="0" transform="scale(.8) translate(9.5, -37)" d="M24.778,21.419 19.276,15.917 24.777,10.415 21.949,7.585 16.447,13.087 10.945,7.585 8.117,10.415 13.618,15.917 8.116,21.419 10.946,24.248 16.447,18.746 21.948,24.248z"><title>Remove vertex.</title></path></g></g><g  id="v-1350" display="none"><g  id="v-1335"><path  end="source" d="M 26 0 L 0 13 L 26 26 z"></path></g><g  id="v-1336"><path  end="target" d="M 26 0 L 0 13 L 26 26 z"></path></g></g><g  id="v-1349" display="none"><g  id="v-1333" transform="translate(3534.7767729723632, 1053.8446454055274) "><g  event="remove"><circle r="11"></circle><path transform="scale(.8) translate(-16, -16)" d="M24.778,21.419 19.276,15.917 24.777,10.415 21.949,7.585 16.447,13.087 10.945,7.585 8.117,10.415 13.618,15.917 8.116,21.419 10.946,24.248 16.447,18.746 21.948,24.248z"></path><title>Remove link.</title></g><g  event="link:options"><circle r="11" transform="translate(25)"></circle><path fill="white" transform="scale(.55) translate(29, -16)" d="M31.229,17.736c0.064-0.571,0.104-1.148,0.104-1.736s-0.04-1.166-0.104-1.737l-4.377-1.557c-0.218-0.716-0.504-1.401-0.851-2.05l1.993-4.192c-0.725-0.91-1.549-1.734-2.458-2.459l-4.193,1.994c-0.647-0.347-1.334-0.632-2.049-0.849l-1.558-4.378C17.165,0.708,16.588,0.667,16,0.667s-1.166,0.041-1.737,0.105L12.707,5.15c-0.716,0.217-1.401,0.502-2.05,0.849L6.464,4.005C5.554,4.73,4.73,5.554,4.005,6.464l1.994,4.192c-0.347,0.648-0.632,1.334-0.849,2.05l-4.378,1.557C0.708,14.834,0.667,15.412,0.667,16s0.041,1.165,0.105,1.736l4.378,1.558c0.217,0.715,0.502,1.401,0.849,2.049l-1.994,4.193c0.725,0.909,1.549,1.733,2.459,2.458l4.192-1.993c0.648,0.347,1.334,0.633,2.05,0.851l1.557,4.377c0.571,0.064,1.148,0.104,1.737,0.104c0.588,0,1.165-0.04,1.736-0.104l1.558-4.377c0.715-0.218,1.399-0.504,2.049-0.851l4.193,1.993c0.909-0.725,1.733-1.549,2.458-2.458l-1.993-4.193c0.347-0.647,0.633-1.334,0.851-2.049L31.229,17.736zM16,20.871c-2.69,0-4.872-2.182-4.872-4.871c0-2.69,2.182-4.872,4.872-4.872c2.689,0,4.871,2.182,4.871,4.872C20.871,18.689,18.689,20.871,16,20.871z"></path><title>Link options.</title></g></g></g></g><!--z-index:66--><g   id="j_98" ><path  stroke="#707070" d="M 3574 1069 L 2309 1448 C 2302.333333333333 1450 2296 1452.3333333333333 2290 1455 L 2149 1511" id="v-1367" stroke-width="2" stroke-dasharray="30 30" fill="none" style="opacity: 1;"></path><path  fill="black" stroke="black" d="M 0 0 0 0" transform="matrix(-0.9578262599768823,0.2873479697138956,-0.2873479697138956,-0.9578262599768823,3574,1068.5)"></path><path  fill="#707070" stroke="#707070" d="M 20 0 L 0 10 L 20 20 z" id="v-1369" transform="matrix(0.9284766089996245,-0.3713908810681253,0.3713908810681253,0.9284766089996245,2145.2859930680725,1501.715275533185)" style="opacity: 1;"></path><path  d="M 3574 1069 L 2309 1448 C 2302.333333333333 1450 2296 1452.3333333333333 2290 1455 L 2149 1511" id="v-1368" fill="none" style="cursor: auto; pointer-events: visiblepainted;"></path><g ><g id="v-1358"  label-idx="0" cursor="move" transform="matrix(1,0,0,1,2859.130126953125,1283.178466796875)" style="cursor: default; opacity: 1;"><rect joint-selector="rect" id="v-1362" fill="#ffffff" rx="3" ry="3" pointer-events="none" width="141.609375" height="28.499999046325684" transform="matrix(1,0,0,1,-70.8,-14.2)"></rect><text joint-selector="text" id="v-1361" font-size="24px" xml:space="preserve" y="0.8em" fill="#707070" text-anchor="middle" pointer-events="none" font-family="Open Sans" font-weight="normal" transform="matrix(1,0,0,1,0,-9.7)"><tspan dy="0" >Envía alertas</tspan></text></g><g id="v-1359"  label-idx="1" cursor="move" transform="matrix(1,0,0,1,2859.130126953125,1309.578369140625)" style="cursor: default; opacity: 1;"><rect joint-selector="rect" id="v-1364" fill="#ffffff" rx="3" ry="3" pointer-events="none" width="94.48046875" height="23.75" transform="matrix(1,0,0,1,-47.2,-11.9)"></rect><text joint-selector="text" id="v-1363" font-size="17px" xml:space="preserve" y="0.8em" fill="#707070" text-anchor="middle" pointer-events="none" font-family="Open Sans" font-weight="normal" transform="matrix(1,0,0,1,0,-6.5)"><tspan dy="0" >[Webhooks]</tspan></text></g><g id="v-1360"  label-idx="2" cursor="move" transform="matrix(1,0,0,1,2849.130126953125,1317.9783935546875)" style="cursor: default; opacity: 1;"><rect joint-selector="rect" id="v-1366" fill="#ffffff" rx="3" ry="3"  width="0" height="0" transform="matrix(1,0,0,1,0,0)" display="none"></rect><text joint-selector="text" id="v-1365" fill="#000000" font-size="14" text-anchor="middle" pointer-events="none"></text></g></g><g  display="none" style="display: none;"><g  transform="translate(2299, 1451)" id="v-1476"><circle  idx="0" r="10"></circle><path  idx="0" d="M16,5.333c-7.732,0-14,4.701-14,10.5c0,1.982,0.741,3.833,2.016,5.414L2,25.667l5.613-1.441c2.339,1.317,5.237,2.107,8.387,2.107c7.732,0,14-4.701,14-10.5C30,10.034,23.732,5.333,16,5.333z" transform="translate(5, -33)"></path><path  idx="0" transform="scale(.8) translate(9.5, -37)" d="M24.778,21.419 19.276,15.917 24.777,10.415 21.949,7.585 16.447,13.087 10.945,7.585 8.117,10.415 13.618,15.917 8.116,21.419 10.946,24.248 16.447,18.746 21.948,24.248z"><title>Remove vertex.</title></path></g></g><g  id="v-1371" display="none"><g  id="v-1356"><path  end="source" d="M 26 0 L 0 13 L 26 26 z"></path></g><g  id="v-1357"><path  end="target" d="M 26 0 L 0 13 L 26 26 z"></path></g></g><g  id="v-1370" display="none"><g  id="v-1354" transform="translate(3535.6827827220914, 1080.4800200382033) "><g  event="remove"><circle r="11"></circle><path transform="scale(.8) translate(-16, -16)" d="M24.778,21.419 19.276,15.917 24.777,10.415 21.949,7.585 16.447,13.087 10.945,7.585 8.117,10.415 13.618,15.917 8.116,21.419 10.946,24.248 16.447,18.746 21.948,24.248z"></path><title>Remove link.</title></g><g  event="link:options"><circle r="11" transform="translate(25)"></circle><path fill="white" transform="scale(.55) translate(29, -16)" d="M31.229,17.736c0.064-0.571,0.104-1.148,0.104-1.736s-0.04-1.166-0.104-1.737l-4.377-1.557c-0.218-0.716-0.504-1.401-0.851-2.05l1.993-4.192c-0.725-0.91-1.549-1.734-2.458-2.459l-4.193,1.994c-0.647-0.347-1.334-0.632-2.049-0.849l-1.558-4.378C17.165,0.708,16.588,0.667,16,0.667s-1.166,0.041-1.737,0.105L12.707,5.15c-0.716,0.217-1.401,0.502-2.05,0.849L6.464,4.005C5.554,4.73,4.73,5.554,4.005,6.464l1.994,4.192c-0.347,0.648-0.632,1.334-0.849,2.05l-4.378,1.557C0.708,14.834,0.667,15.412,0.667,16s0.041,1.165,0.105,1.736l4.378,1.558c0.217,0.715,0.502,1.401,0.849,2.049l-1.994,4.193c0.725,0.909,1.549,1.733,2.459,2.458l4.192-1.993c0.648,0.347,1.334,0.633,2.05,0.851l1.557,4.377c0.571,0.064,1.148,0.104,1.737,0.104c0.588,0,1.165-0.04,1.736-0.104l1.558-4.377c0.715-0.218,1.399-0.504,2.049-0.851l4.193,1.993c0.909-0.725,1.733-1.549,2.458-2.458l-1.993-4.193c0.347-0.647,0.633-1.334,0.851-2.049L31.229,17.736zM16,20.871c-2.69,0-4.872-2.182-4.872-4.871c0-2.69,2.182-4.872,4.872-4.872c2.689,0,4.871,2.182,4.871,4.872C20.871,18.689,18.689,20.871,16,20.871z"></path><title>Link options.</title></g></g></g></g><!--z-index:67--><g   id="j_99" ><path  stroke="#707070" d="M 3574 1121 L 2899 1481" id="v-1387" stroke-width="2" stroke-dasharray="30 30" fill="none" style="opacity: 1;"></path><path  fill="black" stroke="black" d="M 0 0 0 0" transform="matrix(-0.8823528789936014,0.47058835188697895,-0.47058835188697895,-0.8823528789936014,3574,1121)"></path><path  fill="#707070" stroke="#707070" d="M 20 0 L 0 10 L 20 20 z" id="v-1389" transform="matrix(0.8823530043188289,-0.4705881169021767,0.4705881169021767,0.8823530043188289,2894.294075115915,1472.176418508646)" style="opacity: 1;"></path><path  d="M 3574 1121 L 2899 1481" id="v-1388" fill="none" style="cursor: auto; pointer-events: visiblepainted;"></path><g ><g id="v-1378"  label-idx="0" cursor="move" transform="matrix(1,0,0,1,3236.5,1301)" style="cursor: default; opacity: 1;"><rect joint-selector="rect" id="v-1382" fill="#ffffff" rx="3" ry="3" pointer-events="none" width="198.90625" height="28.499999046325684" transform="matrix(1,0,0,1,-99.5,-14.2)"></rect><text joint-selector="text" id="v-1381" font-size="24px" xml:space="preserve" y="0.8em" fill="#707070" text-anchor="middle" pointer-events="none" font-family="Open Sans" font-weight="normal" transform="matrix(1,0,0,1,0,-9.7)"><tspan dy="0" >Gestiona archivos</tspan></text></g><g id="v-1379"  label-idx="1" cursor="move" transform="matrix(1,0,0,1,3236.5,1327.4000244140625)" style="cursor: default; opacity: 1;"><rect joint-selector="rect" id="v-1384" fill="#ffffff" rx="3" ry="3" pointer-events="none" width="79.7109375" height="23.75" transform="matrix(1,0,0,1,-39.9,-11.9)"></rect><text joint-selector="text" id="v-1383" font-size="17px" xml:space="preserve" y="0.8em" fill="#707070" text-anchor="middle" pointer-events="none" font-family="Open Sans" font-weight="normal" transform="matrix(1,0,0,1,0,-6.5)"><tspan dy="0" >[REST API]</tspan></text></g><g id="v-1380"  label-idx="2" cursor="move" transform="matrix(1,0,0,1,3226.5,1335.800048828125)" style="cursor: default; opacity: 1;"><rect joint-selector="rect" id="v-1386" fill="#ffffff" rx="3" ry="3"  width="0" height="0" transform="matrix(1,0,0,1,0,0)" display="none"></rect><text joint-selector="text" id="v-1385" fill="#000000" font-size="14" text-anchor="middle" pointer-events="none"></text></g></g><g  display="none" style="display: none;"></g><g  id="v-1391" display="none"><g  id="v-1376"><path  end="source" d="M 26 0 L 0 13 L 26 26 z"></path></g><g  id="v-1377"><path  end="target" d="M 26 0 L 0 13 L 26 26 z"></path></g></g><g  id="v-1390" display="none"><g  id="v-1375" transform="translate(3538.7058823529414, 1139.8235294117646) "><g  event="remove"><circle r="11"></circle><path transform="scale(.8) translate(-16, -16)" d="M24.778,21.419 19.276,15.917 24.777,10.415 21.949,7.585 16.447,13.087 10.945,7.585 8.117,10.415 13.618,15.917 8.116,21.419 10.946,24.248 16.447,18.746 21.948,24.248z"></path><title>Remove link.</title></g><g  event="link:options"><circle r="11" transform="translate(25)"></circle><path fill="white" transform="scale(.55) translate(29, -16)" d="M31.229,17.736c0.064-0.571,0.104-1.148,0.104-1.736s-0.04-1.166-0.104-1.737l-4.377-1.557c-0.218-0.716-0.504-1.401-0.851-2.05l1.993-4.192c-0.725-0.91-1.549-1.734-2.458-2.459l-4.193,1.994c-0.647-0.347-1.334-0.632-2.049-0.849l-1.558-4.378C17.165,0.708,16.588,0.667,16,0.667s-1.166,0.041-1.737,0.105L12.707,5.15c-0.716,0.217-1.401,0.502-2.05,0.849L6.464,4.005C5.554,4.73,4.73,5.554,4.005,6.464l1.994,4.192c-0.347,0.648-0.632,1.334-0.849,2.05l-4.378,1.557C0.708,14.834,0.667,15.412,0.667,16s0.041,1.165,0.105,1.736l4.378,1.558c0.217,0.715,0.502,1.401,0.849,2.049l-1.994,4.193c0.725,0.909,1.549,1.733,2.459,2.458l4.192-1.993c0.648,0.347,1.334,0.633,2.05,0.851l1.557,4.377c0.571,0.064,1.148,0.104,1.737,0.104c0.588,0,1.165-0.04,1.736-0.104l1.558-4.377c0.715-0.218,1.399-0.504,2.049-0.851l4.193,1.993c0.909-0.725,1.733-1.549,2.458-2.458l-1.993-4.193c0.347-0.647,0.633-1.334,0.851-2.049L31.229,17.736zM16,20.871c-2.69,0-4.872-2.182-4.872-4.871c0-2.69,2.182-4.872,4.872-4.872c2.689,0,4.871,2.182,4.871,4.872C20.871,18.689,18.689,20.871,16,20.871z"></path><title>Link options.</title></g></g></g></g><!--z-index:68--><g   id="j_100" ><path  stroke="#707070" d="M 3705 1151 L 3518 1451" id="v-1407" stroke-width="2" stroke-dasharray="30 30" fill="none" style="opacity: 1;"></path><path  fill="black" stroke="black" d="M 0 0 0 0" transform="matrix(-0.5299989865422612,0.8479982749181605,-0.8479982749181605,-0.5299989865422612,3705.25,1151)"></path><path  fill="#707070" stroke="#707070" d="M 20 0 L 0 10 L 20 20 z" id="v-1409" transform="matrix(0.5299987607066415,-0.8479984160653982,0.8479984160653982,0.5299987607066415,3509.2700770604047,1445.7000160848377)" style="opacity: 1;"></path><path  d="M 3705 1151 L 3518 1451" id="v-1408" fill="none" style="cursor: auto; pointer-events: visiblepainted;"></path><g ><g id="v-1398"  label-idx="0" cursor="move" transform="matrix(1,0,0,1,3611.5,1301)" style="cursor: default; opacity: 1;"><rect joint-selector="rect" id="v-1402" fill="#ffffff" rx="3" ry="3" pointer-events="none" width="179.53515625" height="28.499999046325684" transform="matrix(1,0,0,1,-89.8,-14.2)"></rect><text joint-selector="text" id="v-1401" font-size="24px" xml:space="preserve" y="0.8em" fill="#707070" text-anchor="middle" pointer-events="none" font-family="Open Sans" font-weight="normal" transform="matrix(1,0,0,1,0,-9.7)"><tspan dy="0" >Distribución iOS</tspan></text></g><g id="v-1399"  label-idx="1" cursor="move" transform="matrix(1,0,0,1,3611.5,1327.4000244140625)" style="cursor: default; opacity: 1;"><rect joint-selector="rect" id="v-1404" fill="#ffffff" rx="3" ry="3" pointer-events="none" width="158.75390625" height="23.75" transform="matrix(1,0,0,1,-79.4,-11.9)"></rect><text joint-selector="text" id="v-1403" font-size="17px" xml:space="preserve" y="0.8em" fill="#707070" text-anchor="middle" pointer-events="none" font-family="Open Sans" font-weight="normal" transform="matrix(1,0,0,1,0,-6.5)"><tspan dy="0" >[App Store Connect]</tspan></text></g><g id="v-1400"  label-idx="2" cursor="move" transform="matrix(1,0,0,1,3601.5,1335.800048828125)" style="cursor: default; opacity: 1;"><rect joint-selector="rect" id="v-1406" fill="#ffffff" rx="3" ry="3"  width="0" height="0" transform="matrix(1,0,0,1,0,0)" display="none"></rect><text joint-selector="text" id="v-1405" fill="#000000" font-size="14" text-anchor="middle" pointer-events="none"></text></g></g><g  display="none" style="display: none;"></g><g  id="v-1411" display="none"><g  id="v-1396"><path  end="source" d="M 26 0 L 0 13 L 26 26 z"></path></g><g  id="v-1397"><path  end="target" d="M 26 0 L 0 13 L 26 26 z"></path></g></g><g  id="v-1410" display="none"><g  id="v-1395" transform="translate(3683.8407411961143, 1184.9453349794958) "><g  event="remove"><circle r="11"></circle><path transform="scale(.8) translate(-16, -16)" d="M24.778,21.419 19.276,15.917 24.777,10.415 21.949,7.585 16.447,13.087 10.945,7.585 8.117,10.415 13.618,15.917 8.116,21.419 10.946,24.248 16.447,18.746 21.948,24.248z"></path><title>Remove link.</title></g><g  event="link:options"><circle r="11" transform="translate(25)"></circle><path fill="white" transform="scale(.55) translate(29, -16)" d="M31.229,17.736c0.064-0.571,0.104-1.148,0.104-1.736s-0.04-1.166-0.104-1.737l-4.377-1.557c-0.218-0.716-0.504-1.401-0.851-2.05l1.993-4.192c-0.725-0.91-1.549-1.734-2.458-2.459l-4.193,1.994c-0.647-0.347-1.334-0.632-2.049-0.849l-1.558-4.378C17.165,0.708,16.588,0.667,16,0.667s-1.166,0.041-1.737,0.105L12.707,5.15c-0.716,0.217-1.401,0.502-2.05,0.849L6.464,4.005C5.554,4.73,4.73,5.554,4.005,6.464l1.994,4.192c-0.347,0.648-0.632,1.334-0.849,2.05l-4.378,1.557C0.708,14.834,0.667,15.412,0.667,16s0.041,1.165,0.105,1.736l4.378,1.558c0.217,0.715,0.502,1.401,0.849,2.049l-1.994,4.193c0.725,0.909,1.549,1.733,2.459,2.458l4.192-1.993c0.648,0.347,1.334,0.633,2.05,0.851l1.557,4.377c0.571,0.064,1.148,0.104,1.737,0.104c0.588,0,1.165-0.04,1.736-0.104l1.558-4.377c0.715-0.218,1.399-0.504,2.049-0.851l4.193,1.993c0.909-0.725,1.733-1.549,2.458-2.458l-1.993-4.193c0.347-0.647,0.633-1.334,0.851-2.049L31.229,17.736zM16,20.871c-2.69,0-4.872-2.182-4.872-4.871c0-2.69,2.182-4.872,4.872-4.872c2.689,0,4.871,2.182,4.871,4.872C20.871,18.689,18.689,20.871,16,20.871z"></path><title>Link options.</title></g></g></g></g><!--z-index:69--><g   id="j_101" ><path  stroke="#707070" d="M 3893 1151 L 4080 1451" id="v-1427" stroke-width="2" stroke-dasharray="30 30" fill="none" style="opacity: 1;"></path><path  fill="black" stroke="black" d="M 0 0 0 0" transform="matrix(0.52999893008336,0.8479983102049754,-0.8479983102049754,0.52999893008336,3892.75,1151)"></path><path  fill="#707070" stroke="#707070" d="M 20 0 L 0 10 L 20 20 z" id="v-1429" transform="matrix(-0.5299989865422614,-0.8479982749181603,0.8479982749181603,-0.5299989865422614,4071.769958288116,1456.2999921458543)" style="opacity: 1;"></path><path  d="M 3893 1151 L 4080 1451" id="v-1428" fill="none" style="cursor: auto; pointer-events: visiblepainted;"></path><g ><g id="v-1418"  label-idx="0" cursor="move" transform="matrix(1,0,0,1,3986.5,1301)" style="cursor: default; opacity: 1;"><rect joint-selector="rect" id="v-1422" fill="#ffffff" rx="3" ry="3" pointer-events="none" width="135.375" height="57.299997329711914" transform="matrix(1,0,0,1,-67.7,-28.6)"></rect><text joint-selector="text" id="v-1421" font-size="24px" xml:space="preserve" y="0.8em" fill="#707070" text-anchor="middle" pointer-events="none" font-family="Open Sans" font-weight="normal" transform="matrix(1,0,0,1,0,-24.1)"><tspan dy="0" >Distribución</tspan><tspan dy="1.2em" x="0" >Android</tspan></text></g><g id="v-1419"  label-idx="1" cursor="move" transform="matrix(1,0,0,1,3986.5,1341.800048828125)" style="cursor: default; opacity: 1;"><rect joint-selector="rect" id="v-1424" fill="#ffffff" rx="3" ry="3" pointer-events="none" width="111.328125" height="23.75" transform="matrix(1,0,0,1,-55.7,-11.9)"></rect><text joint-selector="text" id="v-1423" font-size="17px" xml:space="preserve" y="0.8em" fill="#707070" text-anchor="middle" pointer-events="none" font-family="Open Sans" font-weight="normal" transform="matrix(1,0,0,1,0,-6.5)"><tspan dy="0" >[Play Console]</tspan></text></g><g id="v-1420"  label-idx="2" cursor="move" transform="matrix(1,0,0,1,3976.5,1350.199951171875)" style="cursor: default; opacity: 1;"><rect joint-selector="rect" id="v-1426" fill="#ffffff" rx="3" ry="3"  width="0" height="0" transform="matrix(1,0,0,1,0,0)" display="none"></rect><text joint-selector="text" id="v-1425" fill="#000000" font-size="14" text-anchor="middle" pointer-events="none"></text></g></g><g  display="none" style="display: none;"></g><g  id="v-1431" display="none"><g  id="v-1416"><path  end="source" d="M 26 0 L 0 13 L 26 26 z"></path></g><g  id="v-1417"><path  end="target" d="M 26 0 L 0 13 L 26 26 z"></path></g></g><g  id="v-1430" display="none"><g  id="v-1415" transform="translate(3914.1592588038857, 1184.9453349794958) "><g  event="remove"><circle r="11"></circle><path transform="scale(.8) translate(-16, -16)" d="M24.778,21.419 19.276,15.917 24.777,10.415 21.949,7.585 16.447,13.087 10.945,7.585 8.117,10.415 13.618,15.917 8.116,21.419 10.946,24.248 16.447,18.746 21.948,24.248z"></path><title>Remove link.</title></g><g  event="link:options"><circle r="11" transform="translate(25)"></circle><path fill="white" transform="scale(.55) translate(29, -16)" d="M31.229,17.736c0.064-0.571,0.104-1.148,0.104-1.736s-0.04-1.166-0.104-1.737l-4.377-1.557c-0.218-0.716-0.504-1.401-0.851-2.05l1.993-4.192c-0.725-0.91-1.549-1.734-2.458-2.459l-4.193,1.994c-0.647-0.347-1.334-0.632-2.049-0.849l-1.558-4.378C17.165,0.708,16.588,0.667,16,0.667s-1.166,0.041-1.737,0.105L12.707,5.15c-0.716,0.217-1.401,0.502-2.05,0.849L6.464,4.005C5.554,4.73,4.73,5.554,4.005,6.464l1.994,4.192c-0.347,0.648-0.632,1.334-0.849,2.05l-4.378,1.557C0.708,14.834,0.667,15.412,0.667,16s0.041,1.165,0.105,1.736l4.378,1.558c0.217,0.715,0.502,1.401,0.849,2.049l-1.994,4.193c0.725,0.909,1.549,1.733,2.459,2.458l4.192-1.993c0.648,0.347,1.334,0.633,2.05,0.851l1.557,4.377c0.571,0.064,1.148,0.104,1.737,0.104c0.588,0,1.165-0.04,1.736-0.104l1.558-4.377c0.715-0.218,1.399-0.504,2.049-0.851l4.193,1.993c0.909-0.725,1.733-1.549,2.458-2.458l-1.993-4.193c0.347-0.647,0.633-1.334,0.851-2.049L31.229,17.736zM16,20.871c-2.69,0-4.872-2.182-4.872-4.871c0-2.69,2.182-4.872,4.872-4.872c2.689,0,4.871,2.182,4.871,4.872C20.871,18.689,18.689,20.871,16,20.871z"></path><title>Link options.</title></g></g></g></g><!--z-index:70--><g   id="j_102" ><path  stroke="#707070" d="M 4024 1121 L 4699 1481" id="v-1447" stroke-width="2" stroke-dasharray="30 30" fill="none" style="opacity: 1;"></path><path  fill="black" stroke="black" d="M 0 0 0 0" transform="matrix(0.882352941656223,0.47058823439458186,-0.47058823439458186,0.882352941656223,4024,1121)"></path><path  fill="#707070" stroke="#707070" d="M 20 0 L 0 10 L 20 20 z" id="v-1449" transform="matrix(-0.8823528789936015,-0.47058835188697873,0.47058835188697873,-0.8823528789936015,4694.293914802316,1489.8234796916183)" style="opacity: 1;"></path><path  d="M 4024 1121 L 4699 1481" id="v-1448" fill="none" style="cursor: auto; pointer-events: visiblepainted;"></path><g ><g id="v-1438"  label-idx="0" cursor="move" transform="matrix(1,0,0,1,4361.5,1301)" style="cursor: default; opacity: 1;"><rect joint-selector="rect" id="v-1442" fill="#ffffff" rx="3" ry="3" pointer-events="none" width="183.765625" height="29.52433681488037" transform="matrix(1,0,0,1,-91.9,-14.7)"></rect><text joint-selector="text" id="v-1441" font-size="24px" xml:space="preserve" y="0.8em" fill="#707070" text-anchor="middle" pointer-events="none" font-family="Open Sans" font-weight="normal" transform="matrix(1,0,0,1,0,-10.2)"><tspan dy="0" >Builds y updates</tspan></text></g><g id="v-1439"  label-idx="1" cursor="move" transform="matrix(1,0,0,1,4361.5,1327.4000244140625)" style="cursor: default; opacity: 1;"><rect joint-selector="rect" id="v-1444" fill="#ffffff" rx="3" ry="3" pointer-events="none" width="70.65625" height="23.75" transform="matrix(1,0,0,1,-35.3,-11.9)"></rect><text joint-selector="text" id="v-1443" font-size="17px" xml:space="preserve" y="0.8em" fill="#707070" text-anchor="middle" pointer-events="none" font-family="Open Sans" font-weight="normal" transform="matrix(1,0,0,1,0,-6.5)"><tspan dy="0" >[EAS API]</tspan></text></g><g id="v-1440"  label-idx="2" cursor="move" transform="matrix(1,0,0,1,4351.5,1335.800048828125)" style="cursor: default; opacity: 1;"><rect joint-selector="rect" id="v-1446" fill="#ffffff" rx="3" ry="3"  width="0" height="0" transform="matrix(1,0,0,1,0,0)" display="none"></rect><text joint-selector="text" id="v-1445" fill="#000000" font-size="14" text-anchor="middle" pointer-events="none"></text></g></g><g  display="none" style="display: none;"></g><g  id="v-1451" display="none"><g  id="v-1436"><path  end="source" d="M 26 0 L 0 13 L 26 26 z"></path></g><g  id="v-1437"><path  end="target" d="M 26 0 L 0 13 L 26 26 z"></path></g></g><g  id="v-1450" display="none"><g  id="v-1435" transform="translate(4059.294117647059, 1139.8235294117646) "><g  event="remove"><circle r="11"></circle><path transform="scale(.8) translate(-16, -16)" d="M24.778,21.419 19.276,15.917 24.777,10.415 21.949,7.585 16.447,13.087 10.945,7.585 8.117,10.415 13.618,15.917 8.116,21.419 10.946,24.248 16.447,18.746 21.948,24.248z"></path><title>Remove link.</title></g><g  event="link:options"><circle r="11" transform="translate(25)"></circle><path fill="white" transform="scale(.55) translate(29, -16)" d="M31.229,17.736c0.064-0.571,0.104-1.148,0.104-1.736s-0.04-1.166-0.104-1.737l-4.377-1.557c-0.218-0.716-0.504-1.401-0.851-2.05l1.993-4.192c-0.725-0.91-1.549-1.734-2.458-2.459l-4.193,1.994c-0.647-0.347-1.334-0.632-2.049-0.849l-1.558-4.378C17.165,0.708,16.588,0.667,16,0.667s-1.166,0.041-1.737,0.105L12.707,5.15c-0.716,0.217-1.401,0.502-2.05,0.849L6.464,4.005C5.554,4.73,4.73,5.554,4.005,6.464l1.994,4.192c-0.347,0.648-0.632,1.334-0.849,2.05l-4.378,1.557C0.708,14.834,0.667,15.412,0.667,16s0.041,1.165,0.105,1.736l4.378,1.558c0.217,0.715,0.502,1.401,0.849,2.049l-1.994,4.193c0.725,0.909,1.549,1.733,2.459,2.458l4.192-1.993c0.648,0.347,1.334,0.633,2.05,0.851l1.557,4.377c0.571,0.064,1.148,0.104,1.737,0.104c0.588,0,1.165-0.04,1.736-0.104l1.558-4.377c0.715-0.218,1.399-0.504,2.049-0.851l4.193,1.993c0.909-0.725,1.733-1.549,2.458-2.458l-1.993-4.193c0.347-0.647,0.633-1.334,0.851-2.049L31.229,17.736zM16,20.871c-2.69,0-4.872-2.182-4.872-4.871c0-2.69,2.182-4.872,4.872-4.872c2.689,0,4.871,2.182,4.871,4.872C20.871,18.689,18.689,20.871,16,20.871z"></path><title>Link options.</title></g></g></g></g><!--z-index:71--></g><g ></g><g ></g><g ></g></g></svg>